<?xml version="1.0" encoding="UTF-8"?>
<svg xmlns="http://www.w3.org/2000/svg" xmlns:xlink="http://www.w3.org/1999/xlink" width="540" height="324" viewBox="0 0 540 324">
<defs>
<g>
<g id="glyph-0-0">
<path d="M 0.394531 -3.355469 C 0.394531 -4.15625 0.476562 -4.804688 0.640625 -5.296875 C 0.808594 -5.785156 1.054688 -6.164062 1.378906 -6.429688 C 1.707031 -6.695312 2.117188 -6.828125 2.613281 -6.828125 C 2.976562 -6.828125 3.296875 -6.753906 3.570312 -6.609375 C 3.847656 -6.460938 4.074219 -6.25 4.253906 -5.972656 C 4.433594 -5.695312 4.574219 -5.359375 4.675781 -4.960938 C 4.777344 -4.5625 4.828125 -4.027344 4.828125 -3.355469 C 4.828125 -2.554688 4.746094 -1.910156 4.582031 -1.421875 C 4.417969 -0.929688 4.175781 -0.554688 3.847656 -0.285156 C 3.523438 -0.0195312 3.109375 0.117188 2.613281 0.117188 C 1.957031 0.117188 1.441406 -0.117188 1.066406 -0.589844 C 0.617188 -1.15625 0.394531 -2.078125 0.394531 -3.355469 M 1.253906 -3.355469 C 1.253906 -2.238281 1.382812 -1.496094 1.644531 -1.125 C 1.90625 -0.753906 2.226562 -0.570312 2.613281 -0.570312 C 2.996094 -0.570312 3.316406 -0.757812 3.578125 -1.128906 C 3.839844 -1.5 3.96875 -2.242188 3.96875 -3.355469 C 3.96875 -4.472656 3.839844 -5.21875 3.578125 -5.585938 C 3.316406 -5.953125 2.992188 -6.136719 2.601562 -6.136719 C 2.21875 -6.136719 1.914062 -5.976562 1.683594 -5.648438 C 1.394531 -5.234375 1.253906 -4.46875 1.253906 -3.355469 Z M 1.253906 -3.355469 "/>
</g>
<g id="glyph-0-1">
<path d="M 0.863281 0 L 0.863281 -0.949219 L 1.8125 -0.949219 L 1.8125 0 Z M 0.863281 0 "/>
</g>
<g id="glyph-0-2">
<path d="M 3.539062 0 L 2.703125 0 L 2.703125 -5.320312 C 2.503906 -5.128906 2.238281 -4.9375 1.914062 -4.746094 C 1.585938 -4.554688 1.292969 -4.410156 1.035156 -4.3125 L 1.035156 -5.121094 C 1.5 -5.339844 1.910156 -5.605469 2.257812 -5.917969 C 2.609375 -6.230469 2.855469 -6.535156 3 -6.828125 L 3.539062 -6.828125 Z M 3.539062 0 "/>
</g>
<g id="glyph-0-3">
<path d="M 0.394531 -1.78125 L 1.269531 -1.855469 C 1.335938 -1.429688 1.488281 -1.109375 1.722656 -0.894531 C 1.960938 -0.679688 2.246094 -0.570312 2.578125 -0.570312 C 2.980469 -0.570312 3.320312 -0.722656 3.601562 -1.023438 C 3.878906 -1.328125 4.015625 -1.730469 4.015625 -2.230469 C 4.015625 -2.707031 3.882812 -3.082031 3.617188 -3.359375 C 3.347656 -3.632812 3 -3.769531 2.566406 -3.769531 C 2.296875 -3.769531 2.054688 -3.710938 1.835938 -3.589844 C 1.621094 -3.464844 1.449219 -3.308594 1.328125 -3.113281 L 0.542969 -3.214844 L 1.203125 -6.707031 L 4.582031 -6.707031 L 4.582031 -5.910156 L 1.871094 -5.910156 L 1.503906 -4.082031 C 1.910156 -4.367188 2.339844 -4.507812 2.789062 -4.507812 C 3.382812 -4.507812 3.882812 -4.304688 4.289062 -3.890625 C 4.699219 -3.480469 4.902344 -2.953125 4.902344 -2.304688 C 4.902344 -1.691406 4.722656 -1.15625 4.363281 -0.710938 C 3.929688 -0.160156 3.332031 0.117188 2.578125 0.117188 C 1.960938 0.117188 1.457031 -0.0585938 1.066406 -0.402344 C 0.671875 -0.75 0.449219 -1.210938 0.394531 -1.78125 Z M 0.394531 -1.78125 "/>
</g>
<g id="glyph-0-4">
<path d="M 4.78125 -0.800781 L 4.78125 0 L 0.289062 0 C 0.28125 -0.199219 0.3125 -0.394531 0.386719 -0.578125 C 0.5 -0.886719 0.683594 -1.1875 0.933594 -1.484375 C 1.1875 -1.78125 1.550781 -2.125 2.027344 -2.515625 C 2.765625 -3.121094 3.265625 -3.601562 3.523438 -3.953125 C 3.785156 -4.308594 3.914062 -4.644531 3.914062 -4.957031 C 3.914062 -5.289062 3.796875 -5.570312 3.558594 -5.796875 C 3.324219 -6.023438 3.015625 -6.136719 2.632812 -6.136719 C 2.234375 -6.136719 1.910156 -6.015625 1.671875 -5.773438 C 1.429688 -5.535156 1.304688 -5.199219 1.304688 -4.773438 L 0.445312 -4.859375 C 0.503906 -5.5 0.726562 -5.988281 1.109375 -6.324219 C 1.492188 -6.660156 2.007812 -6.828125 2.652344 -6.828125 C 3.304688 -6.828125 3.820312 -6.648438 4.203125 -6.285156 C 4.582031 -5.921875 4.773438 -5.476562 4.773438 -4.941406 C 4.773438 -4.667969 4.71875 -4.402344 4.605469 -4.136719 C 4.496094 -3.875 4.308594 -3.597656 4.050781 -3.308594 C 3.792969 -3.015625 3.363281 -2.617188 2.765625 -2.109375 C 2.265625 -1.691406 1.941406 -1.40625 1.800781 -1.253906 C 1.65625 -1.105469 1.539062 -0.953125 1.445312 -0.800781 Z M 4.78125 -0.800781 "/>
</g>
<g id="glyph-0-5">
<path d="M 0.398438 -1.796875 L 1.234375 -1.90625 C 1.328125 -1.433594 1.492188 -1.09375 1.722656 -0.882812 C 1.953125 -0.675781 2.234375 -0.570312 2.566406 -0.570312 C 2.957031 -0.570312 3.289062 -0.707031 3.558594 -0.980469 C 3.832031 -1.25 3.964844 -1.589844 3.964844 -1.988281 C 3.964844 -2.375 3.839844 -2.691406 3.589844 -2.9375 C 3.339844 -3.1875 3.019531 -3.3125 2.632812 -3.3125 C 2.476562 -3.3125 2.28125 -3.28125 2.046875 -3.21875 L 2.136719 -3.953125 C 2.195312 -3.945312 2.238281 -3.941406 2.273438 -3.941406 C 2.628906 -3.941406 2.949219 -4.035156 3.234375 -4.222656 C 3.519531 -4.40625 3.660156 -4.691406 3.660156 -5.078125 C 3.660156 -5.386719 3.554688 -5.640625 3.347656 -5.839844 C 3.140625 -6.042969 2.875 -6.140625 2.546875 -6.140625 C 2.222656 -6.140625 1.953125 -6.039062 1.734375 -5.835938 C 1.519531 -5.632812 1.378906 -5.324219 1.316406 -4.917969 L 0.484375 -5.066406 C 0.585938 -5.625 0.816406 -6.058594 1.179688 -6.367188 C 1.539062 -6.675781 1.988281 -6.828125 2.527344 -6.828125 C 2.898438 -6.828125 3.242188 -6.75 3.554688 -6.589844 C 3.867188 -6.429688 4.105469 -6.210938 4.269531 -5.9375 C 4.433594 -5.664062 4.519531 -5.371094 4.519531 -5.0625 C 4.519531 -4.765625 4.4375 -4.5 4.28125 -4.257812 C 4.125 -4.015625 3.890625 -3.824219 3.582031 -3.683594 C 3.984375 -3.589844 4.296875 -3.398438 4.519531 -3.105469 C 4.742188 -2.8125 4.851562 -2.449219 4.851562 -2.007812 C 4.851562 -1.414062 4.636719 -0.910156 4.203125 -0.5 C 3.769531 -0.0859375 3.222656 0.121094 2.5625 0.121094 C 1.964844 0.121094 1.46875 -0.0585938 1.074219 -0.414062 C 0.679688 -0.769531 0.453125 -1.230469 0.398438 -1.796875 Z M 0.398438 -1.796875 "/>
</g>
<g id="glyph-0-6">
<path d="M 3.070312 0 L 3.070312 -1.628906 L 0.121094 -1.628906 L 0.121094 -2.394531 L 3.222656 -6.800781 L 3.90625 -6.800781 L 3.90625 -2.394531 L 4.824219 -2.394531 L 4.824219 -1.628906 L 3.90625 -1.628906 L 3.90625 0 L 3.070312 0 M 3.070312 -2.394531 L 3.070312 -5.460938 L 0.941406 -2.394531 Z M 3.070312 -2.394531 "/>
</g>
<g id="glyph-1-0">
<path d="M 2.789062 0 L 2.789062 -3.03125 L 0.03125 -7.15625 L 1.179688 -7.15625 L 2.59375 -5 C 2.851562 -4.597656 3.09375 -4.191406 3.320312 -3.789062 C 3.535156 -4.164062 3.796875 -4.585938 4.101562 -5.054688 L 5.488281 -7.15625 L 6.59375 -7.15625 L 3.734375 -3.03125 L 3.734375 0 Z M 2.789062 0 "/>
</g>
<g id="glyph-1-1">
<path d="M 4.210938 -1.671875 L 5.117188 -1.558594 C 4.972656 -1.027344 4.707031 -0.613281 4.320312 -0.320312 C 3.933594 -0.03125 3.4375 0.117188 2.835938 0.117188 C 2.078125 0.117188 1.476562 -0.117188 1.03125 -0.582031 C 0.589844 -1.050781 0.367188 -1.707031 0.367188 -2.546875 C 0.367188 -3.421875 0.589844 -4.097656 1.039062 -4.578125 C 1.488281 -5.0625 2.070312 -5.304688 2.789062 -5.304688 C 3.480469 -5.304688 4.046875 -5.066406 4.488281 -4.59375 C 4.925781 -4.121094 5.148438 -3.457031 5.148438 -2.601562 C 5.148438 -2.550781 5.144531 -2.472656 5.140625 -2.367188 L 1.273438 -2.367188 C 1.308594 -1.796875 1.46875 -1.363281 1.757812 -1.058594 C 2.046875 -0.757812 2.410156 -0.605469 2.84375 -0.605469 C 3.164062 -0.605469 3.4375 -0.691406 3.667969 -0.859375 C 3.894531 -1.027344 4.074219 -1.296875 4.210938 -1.671875 M 1.324219 -3.089844 L 4.21875 -3.089844 C 4.179688 -3.527344 4.070312 -3.855469 3.886719 -4.070312 C 3.605469 -4.410156 3.242188 -4.578125 2.796875 -4.578125 C 2.394531 -4.578125 2.054688 -4.445312 1.78125 -4.175781 C 1.503906 -3.90625 1.351562 -3.542969 1.324219 -3.089844 Z M 1.324219 -3.089844 "/>
</g>
<g id="glyph-1-2">
<path d="M 4.042969 -0.640625 C 3.71875 -0.363281 3.402344 -0.167969 3.101562 -0.0546875 C 2.800781 0.0585938 2.480469 0.117188 2.132812 0.117188 C 1.5625 0.117188 1.125 -0.0234375 0.820312 -0.300781 C 0.515625 -0.578125 0.359375 -0.933594 0.359375 -1.367188 C 0.359375 -1.621094 0.417969 -1.851562 0.535156 -2.0625 C 0.648438 -2.273438 0.800781 -2.441406 0.988281 -2.570312 C 1.175781 -2.695312 1.386719 -2.792969 1.621094 -2.855469 C 1.792969 -2.902344 2.054688 -2.945312 2.402344 -2.988281 C 3.113281 -3.074219 3.632812 -3.171875 3.96875 -3.289062 C 3.972656 -3.410156 3.976562 -3.488281 3.976562 -3.519531 C 3.976562 -3.878906 3.890625 -4.128906 3.726562 -4.277344 C 3.5 -4.476562 3.167969 -4.574219 2.726562 -4.574219 C 2.3125 -4.574219 2.007812 -4.503906 1.808594 -4.359375 C 1.613281 -4.214844 1.464844 -3.957031 1.371094 -3.589844 L 0.511719 -3.707031 C 0.589844 -4.074219 0.71875 -4.371094 0.898438 -4.597656 C 1.078125 -4.824219 1.335938 -4.996094 1.675781 -5.121094 C 2.011719 -5.242188 2.40625 -5.304688 2.851562 -5.304688 C 3.292969 -5.304688 3.652344 -5.25 3.929688 -5.148438 C 4.207031 -5.042969 4.410156 -4.910156 4.539062 -4.753906 C 4.671875 -4.59375 4.761719 -4.394531 4.8125 -4.15625 C 4.84375 -4.003906 4.859375 -3.734375 4.859375 -3.34375 L 4.859375 -2.171875 C 4.859375 -1.355469 4.878906 -0.839844 4.914062 -0.621094 C 4.953125 -0.40625 5.027344 -0.199219 5.136719 0 L 4.21875 0 C 4.128906 -0.183594 4.070312 -0.394531 4.042969 -0.640625 M 3.96875 -2.601562 C 3.652344 -2.472656 3.171875 -2.363281 2.535156 -2.269531 C 2.171875 -2.21875 1.917969 -2.160156 1.765625 -2.09375 C 1.617188 -2.03125 1.503906 -1.933594 1.421875 -1.808594 C 1.339844 -1.683594 1.296875 -1.542969 1.296875 -1.390625 C 1.296875 -1.15625 1.386719 -0.960938 1.566406 -0.804688 C 1.742188 -0.648438 2 -0.570312 2.34375 -0.570312 C 2.683594 -0.570312 2.984375 -0.644531 3.246094 -0.792969 C 3.511719 -0.941406 3.703125 -1.144531 3.828125 -1.402344 C 3.921875 -1.601562 3.96875 -1.894531 3.96875 -2.28125 Z M 3.96875 -2.601562 "/>
</g>
<g id="glyph-1-3">
<path d="M 0.648438 0 L 0.648438 -5.1875 L 1.441406 -5.1875 L 1.441406 -4.398438 C 1.640625 -4.765625 1.828125 -5.007812 2 -5.125 C 2.171875 -5.242188 2.359375 -5.304688 2.5625 -5.304688 C 2.859375 -5.304688 3.160156 -5.207031 3.46875 -5.019531 L 3.164062 -4.203125 C 2.949219 -4.332031 2.734375 -4.394531 2.519531 -4.394531 C 2.328125 -4.394531 2.15625 -4.335938 2 -4.222656 C 1.847656 -4.105469 1.738281 -3.945312 1.675781 -3.742188 C 1.578125 -3.429688 1.527344 -3.085938 1.527344 -2.714844 L 1.527344 0 Z M 0.648438 0 "/>
</g>
<g id="glyph-1-4">
<path d="M 0.308594 -1.546875 L 1.175781 -1.683594 C 1.226562 -1.335938 1.363281 -1.070312 1.585938 -0.882812 C 1.808594 -0.699219 2.117188 -0.605469 2.519531 -0.605469 C 2.921875 -0.605469 3.222656 -0.6875 3.417969 -0.851562 C 3.613281 -1.015625 3.710938 -1.210938 3.710938 -1.429688 C 3.710938 -1.628906 3.625 -1.785156 3.453125 -1.898438 C 3.332031 -1.976562 3.03125 -2.078125 2.554688 -2.195312 C 1.910156 -2.359375 1.460938 -2.5 1.214844 -2.621094 C 0.964844 -2.738281 0.777344 -2.902344 0.648438 -3.113281 C 0.519531 -3.324219 0.453125 -3.554688 0.453125 -3.808594 C 0.453125 -4.039062 0.507812 -4.253906 0.613281 -4.449219 C 0.71875 -4.648438 0.863281 -4.8125 1.046875 -4.941406 C 1.179688 -5.042969 1.367188 -5.128906 1.605469 -5.199219 C 1.839844 -5.269531 2.09375 -5.304688 2.363281 -5.304688 C 2.769531 -5.304688 3.128906 -5.242188 3.433594 -5.125 C 3.742188 -5.007812 3.96875 -4.851562 4.117188 -4.652344 C 4.261719 -4.449219 4.363281 -4.183594 4.417969 -3.847656 L 3.558594 -3.730469 C 3.519531 -3.996094 3.40625 -4.207031 3.21875 -4.355469 C 3.03125 -4.503906 2.769531 -4.578125 2.425781 -4.578125 C 2.023438 -4.578125 1.734375 -4.511719 1.5625 -4.378906 C 1.390625 -4.246094 1.304688 -4.089844 1.304688 -3.910156 C 1.304688 -3.796875 1.339844 -3.695312 1.410156 -3.601562 C 1.484375 -3.507812 1.59375 -3.429688 1.75 -3.367188 C 1.835938 -3.335938 2.09375 -3.261719 2.523438 -3.144531 C 3.144531 -2.976562 3.578125 -2.84375 3.824219 -2.738281 C 4.070312 -2.632812 4.265625 -2.476562 4.40625 -2.273438 C 4.542969 -2.074219 4.613281 -1.824219 4.613281 -1.523438 C 4.613281 -1.230469 4.527344 -0.953125 4.359375 -0.695312 C 4.1875 -0.4375 3.941406 -0.238281 3.617188 -0.09375 C 3.296875 0.046875 2.929688 0.117188 2.523438 0.117188 C 1.851562 0.117188 1.335938 -0.0234375 0.984375 -0.304688 C 0.628906 -0.582031 0.40625 -0.996094 0.308594 -1.546875 Z M 0.308594 -1.546875 "/>
</g>
<g id="glyph-1-5">
</g>
<g id="glyph-1-6">
<path d="M 0.664062 -6.148438 L 0.664062 -7.15625 L 1.542969 -7.15625 L 1.542969 -6.148438 L 0.664062 -6.148438 M 0.664062 0 L 0.664062 -5.1875 L 1.542969 -5.1875 L 1.542969 0 Z M 0.664062 0 "/>
</g>
<g id="glyph-1-7">
<path d="M 0.660156 0 L 0.660156 -5.1875 L 1.449219 -5.1875 L 1.449219 -4.449219 C 1.832031 -5.019531 2.382812 -5.304688 3.101562 -5.304688 C 3.414062 -5.304688 3.699219 -5.246094 3.960938 -5.132812 C 4.222656 -5.023438 4.421875 -4.875 4.550781 -4.691406 C 4.679688 -4.511719 4.773438 -4.292969 4.824219 -4.042969 C 4.855469 -3.878906 4.875 -3.59375 4.875 -3.1875 L 4.875 0 L 3.992188 0 L 3.992188 -3.15625 C 3.992188 -3.511719 3.960938 -3.78125 3.890625 -3.957031 C 3.824219 -4.136719 3.703125 -4.277344 3.527344 -4.382812 C 3.355469 -4.488281 3.148438 -4.539062 2.914062 -4.539062 C 2.539062 -4.539062 2.21875 -4.421875 1.945312 -4.183594 C 1.675781 -3.945312 1.539062 -3.496094 1.539062 -2.832031 L 1.539062 0 Z M 0.660156 0 "/>
</g>
<g id="glyph-1-8">
<path d="M 4.042969 -1.898438 L 4.90625 -1.789062 C 4.8125 -1.191406 4.570312 -0.726562 4.183594 -0.386719 C 3.792969 -0.0507812 3.316406 0.117188 2.75 0.117188 C 2.039062 0.117188 1.46875 -0.113281 1.039062 -0.578125 C 0.605469 -1.042969 0.390625 -1.707031 0.390625 -2.574219 C 0.390625 -3.132812 0.484375 -3.625 0.667969 -4.042969 C 0.855469 -4.460938 1.136719 -4.777344 1.515625 -4.988281 C 1.894531 -5.199219 2.308594 -5.304688 2.753906 -5.304688 C 3.316406 -5.304688 3.777344 -5.160156 4.136719 -4.875 C 4.492188 -4.589844 4.722656 -4.1875 4.824219 -3.664062 L 3.96875 -3.53125 C 3.886719 -3.878906 3.746094 -4.140625 3.539062 -4.316406 C 3.332031 -4.492188 3.082031 -4.578125 2.789062 -4.578125 C 2.34375 -4.578125 1.984375 -4.421875 1.710938 -4.105469 C 1.433594 -3.785156 1.292969 -3.285156 1.292969 -2.597656 C 1.292969 -1.902344 1.425781 -1.394531 1.695312 -1.078125 C 1.960938 -0.761719 2.308594 -0.605469 2.738281 -0.605469 C 3.085938 -0.605469 3.371094 -0.710938 3.601562 -0.921875 C 3.835938 -1.132812 3.980469 -1.460938 4.042969 -1.898438 Z M 4.042969 -1.898438 "/>
</g>
<g id="glyph-1-9">
<path d="M 2.578125 -0.785156 L 2.703125 -0.0078125 C 2.457031 0.0429688 2.234375 0.0703125 2.039062 0.0703125 C 1.722656 0.0703125 1.476562 0.0195312 1.296875 -0.0820312 C 1.125 -0.183594 1 -0.316406 0.929688 -0.480469 C 0.855469 -0.644531 0.820312 -0.992188 0.820312 -1.519531 L 0.820312 -4.5 L 0.175781 -4.5 L 0.175781 -5.1875 L 0.820312 -5.1875 L 0.820312 -6.46875 L 1.695312 -6.996094 L 1.695312 -5.1875 L 2.578125 -5.1875 L 2.578125 -4.5 L 1.695312 -4.5 L 1.695312 -1.46875 C 1.695312 -1.21875 1.710938 -1.058594 1.742188 -0.984375 C 1.773438 -0.914062 1.820312 -0.859375 1.890625 -0.816406 C 1.960938 -0.773438 2.0625 -0.75 2.191406 -0.75 C 2.289062 -0.75 2.417969 -0.761719 2.578125 -0.785156 Z M 2.578125 -0.785156 "/>
</g>
<g id="glyph-1-10">
<path d="M 2.101562 0 L 0.125 -5.1875 L 1.054688 -5.1875 L 2.167969 -2.078125 C 2.289062 -1.746094 2.398438 -1.398438 2.5 -1.035156 C 2.578125 -1.308594 2.6875 -1.636719 2.828125 -2.023438 L 3.980469 -5.1875 L 4.882812 -5.1875 L 2.921875 0 Z M 2.101562 0 "/>
</g>
<g id="glyph-1-11">
<path d="M 0.332031 -2.59375 C 0.332031 -3.554688 0.597656 -4.265625 1.132812 -4.726562 C 1.578125 -5.109375 2.121094 -5.304688 2.765625 -5.304688 C 3.476562 -5.304688 4.058594 -5.070312 4.511719 -4.601562 C 4.964844 -4.136719 5.191406 -3.488281 5.191406 -2.664062 C 5.191406 -2 5.089844 -1.472656 4.890625 -1.089844 C 4.691406 -0.707031 4.398438 -0.410156 4.015625 -0.199219 C 3.632812 0.0117188 3.214844 0.117188 2.765625 0.117188 C 2.039062 0.117188 1.449219 -0.117188 1.003906 -0.582031 C 0.554688 -1.046875 0.332031 -1.71875 0.332031 -2.59375 M 1.234375 -2.59375 C 1.234375 -1.929688 1.378906 -1.429688 1.671875 -1.101562 C 1.960938 -0.769531 2.324219 -0.605469 2.765625 -0.605469 C 3.199219 -0.605469 3.5625 -0.773438 3.851562 -1.101562 C 4.140625 -1.4375 4.289062 -1.941406 4.289062 -2.621094 C 4.289062 -3.261719 4.140625 -3.75 3.851562 -4.078125 C 3.558594 -4.410156 3.195312 -4.574219 2.765625 -4.574219 C 2.324219 -4.574219 1.960938 -4.410156 1.671875 -4.082031 C 1.378906 -3.753906 1.234375 -3.257812 1.234375 -2.59375 Z M 1.234375 -2.59375 "/>
</g>
<g id="glyph-1-12">
<path d="M 0.800781 0 L 0.800781 -7.15625 L 1.75 -7.15625 L 1.75 -4.21875 L 5.46875 -4.21875 L 5.46875 -7.15625 L 6.414062 -7.15625 L 6.414062 0 L 5.46875 0 L 5.46875 -3.375 L 1.75 -3.375 L 1.75 0 Z M 0.800781 0 "/>
</g>
<g id="glyph-1-13">
<path d="M 0.640625 0 L 0.640625 -7.15625 L 1.519531 -7.15625 L 1.519531 0 Z M 0.640625 0 "/>
</g>
<g id="glyph-1-14">
<path d="M 0.660156 0 L 0.660156 -7.15625 L 1.539062 -7.15625 L 1.539062 -4.589844 C 1.949219 -5.066406 2.464844 -5.304688 3.089844 -5.304688 C 3.476562 -5.304688 3.808594 -5.226562 4.09375 -5.074219 C 4.375 -4.925781 4.578125 -4.714844 4.699219 -4.449219 C 4.820312 -4.179688 4.882812 -3.792969 4.882812 -3.285156 L 4.882812 0 L 4.003906 0 L 4.003906 -3.285156 C 4.003906 -3.726562 3.910156 -4.046875 3.71875 -4.246094 C 3.527344 -4.445312 3.257812 -4.546875 2.910156 -4.546875 C 2.648438 -4.546875 2.40625 -4.476562 2.175781 -4.34375 C 1.945312 -4.207031 1.78125 -4.023438 1.683594 -3.792969 C 1.585938 -3.5625 1.539062 -3.242188 1.539062 -2.835938 L 1.539062 0 Z M 0.660156 0 "/>
</g>
<g id="glyph-1-15">
<path d="M 0.660156 1.988281 L 0.660156 -5.1875 L 1.460938 -5.1875 L 1.460938 -4.511719 C 1.648438 -4.773438 1.863281 -4.972656 2.101562 -5.105469 C 2.335938 -5.238281 2.625 -5.304688 2.964844 -5.304688 C 3.40625 -5.304688 3.796875 -5.1875 4.136719 -4.960938 C 4.472656 -4.734375 4.730469 -4.410156 4.902344 -3.996094 C 5.074219 -3.582031 5.160156 -3.125 5.160156 -2.632812 C 5.160156 -2.101562 5.066406 -1.625 4.875 -1.199219 C 4.683594 -0.773438 4.410156 -0.449219 4.046875 -0.222656 C 3.683594 0.00390625 3.300781 0.117188 2.898438 0.117188 C 2.609375 0.117188 2.34375 0.0546875 2.113281 -0.0703125 C 1.878906 -0.191406 1.6875 -0.347656 1.539062 -0.539062 L 1.539062 1.988281 L 0.660156 1.988281 M 1.453125 -2.5625 C 1.453125 -1.894531 1.589844 -1.402344 1.859375 -1.085938 C 2.128906 -0.765625 2.457031 -0.605469 2.84375 -0.605469 C 3.234375 -0.605469 3.566406 -0.769531 3.84375 -1.101562 C 4.125 -1.429688 4.261719 -1.945312 4.261719 -2.636719 C 4.261719 -3.296875 4.125 -3.792969 3.855469 -4.121094 C 3.582031 -4.449219 3.257812 -4.613281 2.882812 -4.613281 C 2.507812 -4.613281 2.175781 -4.4375 1.886719 -4.089844 C 1.597656 -3.738281 1.453125 -3.230469 1.453125 -2.5625 Z M 1.453125 -2.5625 "/>
</g>
<g id="glyph-1-16">
<path d="M 2.503906 -1.15625 L 2.503906 -3.121094 L 0.554688 -3.121094 L 0.554688 -3.941406 L 2.503906 -3.941406 L 2.503906 -5.890625 L 3.335938 -5.890625 L 3.335938 -3.941406 L 5.28125 -3.941406 L 5.28125 -3.121094 L 3.335938 -3.121094 L 3.335938 -1.15625 Z M 2.503906 -1.15625 "/>
</g>
<g id="glyph-1-17">
<path d="M 0.867188 0 L 0.867188 -4.5 L 0.09375 -4.5 L 0.09375 -5.1875 L 0.867188 -5.1875 L 0.867188 -5.738281 C 0.867188 -6.085938 0.898438 -6.34375 0.960938 -6.515625 C 1.046875 -6.742188 1.195312 -6.925781 1.410156 -7.066406 C 1.621094 -7.210938 1.921875 -7.28125 2.304688 -7.28125 C 2.550781 -7.28125 2.824219 -7.25 3.125 -7.191406 L 2.992188 -6.425781 C 2.8125 -6.457031 2.636719 -6.476562 2.476562 -6.476562 C 2.207031 -6.476562 2.019531 -6.417969 1.910156 -6.304688 C 1.796875 -6.191406 1.742188 -5.976562 1.742188 -5.664062 L 1.742188 -5.1875 L 2.753906 -5.1875 L 2.753906 -4.5 L 1.742188 -4.5 L 1.742188 0 Z M 0.867188 0 "/>
</g>
<g id="glyph-1-18">
<path d="M 2.339844 2.105469 C 1.855469 1.492188 1.445312 0.777344 1.109375 -0.0429688 C 0.773438 -0.863281 0.605469 -1.714844 0.605469 -2.59375 C 0.605469 -3.367188 0.730469 -4.109375 0.980469 -4.820312 C 1.273438 -5.644531 1.726562 -6.464844 2.339844 -7.28125 L 2.96875 -7.28125 C 2.574219 -6.601562 2.3125 -6.121094 2.1875 -5.828125 C 1.988281 -5.382812 1.832031 -4.910156 1.71875 -4.421875 C 1.578125 -3.816406 1.507812 -3.203125 1.507812 -2.585938 C 1.507812 -1.023438 1.996094 0.542969 2.96875 2.105469 Z M 2.339844 2.105469 "/>
</g>
<g id="glyph-1-19">
<path d="M 0.660156 0 L 0.660156 -5.1875 L 1.445312 -5.1875 L 1.445312 -4.457031 C 1.609375 -4.710938 1.824219 -4.917969 2.09375 -5.070312 C 2.363281 -5.226562 2.671875 -5.304688 3.015625 -5.304688 C 3.402344 -5.304688 3.714844 -5.222656 3.960938 -5.0625 C 4.207031 -4.902344 4.382812 -4.679688 4.484375 -4.394531 C 4.890625 -5 5.425781 -5.304688 6.085938 -5.304688 C 6.597656 -5.304688 6.992188 -5.160156 7.269531 -4.875 C 7.546875 -4.589844 7.6875 -4.152344 7.6875 -3.558594 L 7.6875 0 L 6.8125 0 L 6.8125 -3.265625 C 6.8125 -3.617188 6.78125 -3.871094 6.726562 -4.027344 C 6.667969 -4.179688 6.566406 -4.304688 6.414062 -4.398438 C 6.265625 -4.492188 6.089844 -4.539062 5.890625 -4.539062 C 5.523438 -4.539062 5.222656 -4.417969 4.980469 -4.175781 C 4.738281 -3.933594 4.617188 -3.546875 4.617188 -3.011719 L 4.617188 0 L 3.742188 0 L 3.742188 -3.367188 C 3.742188 -3.757812 3.667969 -4.050781 3.523438 -4.25 C 3.382812 -4.441406 3.148438 -4.539062 2.820312 -4.539062 C 2.574219 -4.539062 2.347656 -4.476562 2.136719 -4.34375 C 1.925781 -4.214844 1.773438 -4.023438 1.679688 -3.773438 C 1.585938 -3.523438 1.539062 -3.164062 1.539062 -2.691406 L 1.539062 0 Z M 0.660156 0 "/>
</g>
<g id="glyph-1-20">
<path d="M 0.0742188 0 L 1.96875 -2.695312 L 0.214844 -5.1875 L 1.3125 -5.1875 L 2.109375 -3.96875 C 2.257812 -3.738281 2.378906 -3.546875 2.46875 -3.390625 C 2.613281 -3.601562 2.746094 -3.792969 2.867188 -3.960938 L 3.742188 -5.1875 L 4.789062 -5.1875 L 3 -2.742188 L 4.925781 0 L 3.847656 0 L 2.78125 -1.609375 L 2.5 -2.046875 L 1.136719 0 Z M 0.0742188 0 "/>
</g>
<g id="glyph-1-21">
<path d="M 1.234375 2.105469 L 0.605469 2.105469 C 1.578125 0.542969 2.066406 -1.023438 2.066406 -2.585938 C 2.066406 -3.199219 1.996094 -3.808594 1.855469 -4.410156 C 1.746094 -4.898438 1.589844 -5.367188 1.390625 -5.816406 C 1.265625 -6.109375 1.003906 -6.597656 0.605469 -7.28125 L 1.234375 -7.28125 C 1.847656 -6.464844 2.300781 -5.644531 2.59375 -4.820312 C 2.84375 -4.109375 2.96875 -3.367188 2.96875 -2.59375 C 2.96875 -1.714844 2.800781 -0.863281 2.464844 -0.0429688 C 2.125 0.777344 1.71875 1.492188 1.234375 2.105469 Z M 1.234375 2.105469 "/>
</g>
<g id="glyph-1-22">
<path d="M 0.734375 0 L 0.734375 -7.15625 L 1.679688 -7.15625 L 1.679688 -0.84375 L 5.203125 -0.84375 L 5.203125 0 Z M 0.734375 0 "/>
</g>
<g id="glyph-1-23">
<path d="M 0.621094 1.996094 L 0.523438 1.171875 C 0.714844 1.222656 0.882812 1.25 1.023438 1.25 C 1.21875 1.25 1.375 1.21875 1.492188 1.152344 C 1.609375 1.085938 1.707031 0.996094 1.78125 0.878906 C 1.835938 0.789062 1.925781 0.574219 2.050781 0.226562 C 2.066406 0.175781 2.09375 0.105469 2.128906 0.0078125 L 0.160156 -5.1875 L 1.109375 -5.1875 L 2.1875 -2.183594 C 2.328125 -1.800781 2.453125 -1.402344 2.5625 -0.980469 C 2.664062 -1.386719 2.785156 -1.777344 2.925781 -2.164062 L 4.03125 -5.1875 L 4.914062 -5.1875 L 2.9375 0.0859375 C 2.726562 0.65625 2.5625 1.050781 2.445312 1.265625 C 2.289062 1.554688 2.109375 1.765625 1.910156 1.902344 C 1.707031 2.035156 1.464844 2.105469 1.1875 2.105469 C 1.015625 2.105469 0.828125 2.070312 0.621094 1.996094 Z M 0.621094 1.996094 "/>
</g>
<g id="glyph-1-24">
<path d="M 1.617188 0 L 0.03125 -5.1875 L 0.9375 -5.1875 L 1.761719 -2.191406 L 2.070312 -1.078125 C 2.082031 -1.132812 2.171875 -1.492188 2.339844 -2.148438 L 3.164062 -5.1875 L 4.066406 -5.1875 L 4.84375 -2.179688 L 5.101562 -1.1875 L 6.289062 -5.1875 L 7.144531 -5.1875 L 5.523438 0 L 4.609375 0 L 3.785156 -3.105469 L 3.585938 -3.988281 L 2.535156 0 Z M 1.617188 0 "/>
</g>
<g id="glyph-1-25">
<path d="M 4.058594 0 L 4.058594 -0.761719 C 3.652344 -0.175781 3.105469 0.117188 2.414062 0.117188 C 2.105469 0.117188 1.820312 0.0585938 1.554688 -0.0585938 C 1.289062 -0.175781 1.09375 -0.324219 0.964844 -0.5 C 0.835938 -0.679688 0.746094 -0.894531 0.695312 -1.152344 C 0.65625 -1.324219 0.640625 -1.597656 0.640625 -1.972656 L 0.640625 -5.1875 L 1.519531 -5.1875 L 1.519531 -2.308594 C 1.519531 -1.851562 1.535156 -1.542969 1.570312 -1.382812 C 1.628906 -1.152344 1.746094 -0.96875 1.921875 -0.835938 C 2.101562 -0.707031 2.324219 -0.640625 2.585938 -0.640625 C 2.851562 -0.640625 3.097656 -0.707031 3.328125 -0.84375 C 3.5625 -0.976562 3.726562 -1.160156 3.820312 -1.394531 C 3.917969 -1.625 3.964844 -1.964844 3.964844 -2.40625 L 3.964844 -5.1875 L 4.84375 -5.1875 L 4.84375 0 Z M 4.058594 0 "/>
</g>
<g id="glyph-2-0">
<path d="M -2.507812 -5.878906 L -2.269531 -6.828125 C -1.492188 -6.628906 -0.898438 -6.269531 -0.492188 -5.753906 C -0.0820312 -5.238281 0.121094 -4.609375 0.121094 -3.863281 C 0.121094 -3.089844 -0.0351562 -2.464844 -0.347656 -1.980469 C -0.664062 -1.496094 -1.117188 -1.128906 -1.714844 -0.875 C -2.308594 -0.625 -2.949219 -0.496094 -3.632812 -0.5 C -4.378906 -0.496094 -5.027344 -0.640625 -5.582031 -0.925781 C -6.136719 -1.210938 -6.558594 -1.617188 -6.847656 -2.140625 C -7.136719 -2.667969 -7.28125 -3.246094 -7.28125 -3.878906 C -7.28125 -4.59375 -7.097656 -5.195312 -6.734375 -5.683594 C -6.367188 -6.171875 -5.855469 -6.511719 -5.195312 -6.703125 L -4.976562 -5.773438 C -5.496094 -5.605469 -5.875 -5.363281 -6.113281 -5.046875 C -6.351562 -4.734375 -6.46875 -4.335938 -6.46875 -3.859375 C -6.46875 -3.308594 -6.335938 -2.847656 -6.074219 -2.476562 C -5.8125 -2.109375 -5.457031 -1.847656 -5.011719 -1.699219 C -4.566406 -1.550781 -4.109375 -1.476562 -3.636719 -1.476562 C -3.027344 -1.476562 -2.496094 -1.5625 -2.042969 -1.742188 C -1.589844 -1.917969 -1.25 -2.195312 -1.023438 -2.570312 C -0.800781 -2.941406 -0.6875 -3.347656 -0.6875 -3.785156 C -0.6875 -4.316406 -0.839844 -4.765625 -1.148438 -5.132812 C -1.453125 -5.5 -1.90625 -5.75 -2.507812 -5.878906 Z M -2.507812 -5.878906 "/>
</g>
<g id="glyph-2-1">
<path d="M 0 -4.058594 L -0.761719 -4.058594 C -0.175781 -3.652344 0.117188 -3.105469 0.117188 -2.414062 C 0.117188 -2.105469 0.0585938 -1.820312 -0.0585938 -1.554688 C -0.175781 -1.289062 -0.324219 -1.09375 -0.5 -0.964844 C -0.679688 -0.835938 -0.894531 -0.746094 -1.152344 -0.695312 C -1.324219 -0.65625 -1.597656 -0.640625 -1.972656 -0.640625 L -5.1875 -0.640625 L -5.1875 -1.519531 L -2.308594 -1.519531 C -1.851562 -1.519531 -1.542969 -1.535156 -1.382812 -1.570312 C -1.152344 -1.628906 -0.96875 -1.746094 -0.835938 -1.921875 C -0.707031 -2.101562 -0.640625 -2.324219 -0.640625 -2.585938 C -0.640625 -2.851562 -0.707031 -3.097656 -0.84375 -3.328125 C -0.976562 -3.5625 -1.160156 -3.726562 -1.394531 -3.820312 C -1.625 -3.917969 -1.964844 -3.964844 -2.40625 -3.964844 L -5.1875 -3.964844 L -5.1875 -4.84375 L 0 -4.84375 Z M 0 -4.058594 "/>
</g>
<g id="glyph-2-2">
<path d="M 0 -0.660156 L -5.1875 -0.660156 L -5.1875 -1.445312 L -4.457031 -1.445312 C -4.710938 -1.609375 -4.917969 -1.824219 -5.070312 -2.09375 C -5.226562 -2.363281 -5.304688 -2.671875 -5.304688 -3.019531 C -5.304688 -3.402344 -5.222656 -3.714844 -5.0625 -3.960938 C -4.902344 -4.207031 -4.679688 -4.382812 -4.394531 -4.484375 C -5 -4.890625 -5.304688 -5.425781 -5.304688 -6.085938 C -5.304688 -6.597656 -5.160156 -6.992188 -4.875 -7.269531 C -4.589844 -7.546875 -4.152344 -7.6875 -3.558594 -7.6875 L 0 -7.6875 L 0 -6.8125 L -3.265625 -6.8125 C -3.617188 -6.8125 -3.871094 -6.78125 -4.027344 -6.726562 C -4.179688 -6.667969 -4.304688 -6.566406 -4.398438 -6.414062 C -4.492188 -6.265625 -4.539062 -6.089844 -4.539062 -5.890625 C -4.539062 -5.523438 -4.417969 -5.222656 -4.175781 -4.980469 C -3.933594 -4.738281 -3.546875 -4.617188 -3.011719 -4.617188 L 0 -4.617188 L 0 -3.742188 L -3.367188 -3.742188 C -3.757812 -3.742188 -4.050781 -3.667969 -4.25 -3.527344 C -4.441406 -3.382812 -4.539062 -3.148438 -4.539062 -2.824219 C -4.539062 -2.574219 -4.476562 -2.347656 -4.34375 -2.136719 C -4.214844 -1.925781 -4.023438 -1.773438 -3.773438 -1.679688 C -3.523438 -1.585938 -3.164062 -1.539062 -2.691406 -1.539062 L 0 -1.539062 Z M 0 -0.660156 "/>
</g>
<g id="glyph-2-3">
<path d="M 0 -0.640625 L -7.15625 -0.640625 L -7.15625 -1.519531 L 0 -1.519531 Z M 0 -0.640625 "/>
</g>
<g id="glyph-2-4">
<path d="M -0.640625 -4.042969 C -0.363281 -3.71875 -0.167969 -3.402344 -0.0546875 -3.101562 C 0.0585938 -2.800781 0.117188 -2.480469 0.117188 -2.132812 C 0.117188 -1.5625 -0.0234375 -1.125 -0.300781 -0.820312 C -0.578125 -0.515625 -0.933594 -0.363281 -1.367188 -0.363281 C -1.621094 -0.363281 -1.851562 -0.417969 -2.0625 -0.535156 C -2.273438 -0.648438 -2.441406 -0.800781 -2.570312 -0.988281 C -2.695312 -1.175781 -2.792969 -1.386719 -2.855469 -1.621094 C -2.902344 -1.792969 -2.945312 -2.054688 -2.988281 -2.402344 C -3.074219 -3.113281 -3.171875 -3.632812 -3.289062 -3.96875 C -3.410156 -3.972656 -3.488281 -3.976562 -3.519531 -3.976562 C -3.878906 -3.976562 -4.128906 -3.890625 -4.277344 -3.726562 C -4.476562 -3.5 -4.574219 -3.167969 -4.574219 -2.726562 C -4.574219 -2.3125 -4.503906 -2.007812 -4.359375 -1.808594 C -4.214844 -1.613281 -3.957031 -1.464844 -3.589844 -1.371094 L -3.707031 -0.511719 C -4.074219 -0.589844 -4.371094 -0.71875 -4.597656 -0.898438 C -4.824219 -1.078125 -4.996094 -1.335938 -5.121094 -1.675781 C -5.242188 -2.011719 -5.304688 -2.40625 -5.304688 -2.851562 C -5.304688 -3.292969 -5.25 -3.652344 -5.148438 -3.929688 C -5.042969 -4.207031 -4.910156 -4.410156 -4.753906 -4.539062 C -4.59375 -4.671875 -4.394531 -4.761719 -4.15625 -4.8125 C -4.003906 -4.84375 -3.734375 -4.859375 -3.34375 -4.859375 L -2.171875 -4.859375 C -1.355469 -4.859375 -0.839844 -4.878906 -0.621094 -4.914062 C -0.40625 -4.953125 -0.199219 -5.027344 0 -5.136719 L 0 -4.21875 C -0.183594 -4.128906 -0.394531 -4.070312 -0.640625 -4.042969 M -2.601562 -3.96875 C -2.472656 -3.652344 -2.363281 -3.171875 -2.269531 -2.535156 C -2.21875 -2.171875 -2.160156 -1.917969 -2.09375 -1.769531 C -2.03125 -1.617188 -1.933594 -1.503906 -1.808594 -1.421875 C -1.683594 -1.339844 -1.542969 -1.296875 -1.390625 -1.296875 C -1.15625 -1.296875 -0.960938 -1.386719 -0.804688 -1.566406 C -0.648438 -1.742188 -0.570312 -2 -0.570312 -2.34375 C -0.570312 -2.683594 -0.644531 -2.984375 -0.792969 -3.246094 C -0.941406 -3.511719 -1.144531 -3.703125 -1.402344 -3.828125 C -1.601562 -3.921875 -1.894531 -3.96875 -2.28125 -3.96875 Z M -2.601562 -3.96875 "/>
</g>
<g id="glyph-2-5">
<path d="M -0.785156 -2.578125 L -0.0078125 -2.703125 C 0.0429688 -2.457031 0.0703125 -2.234375 0.0703125 -2.039062 C 0.0703125 -1.722656 0.0195312 -1.476562 -0.0820312 -1.296875 C -0.183594 -1.125 -0.316406 -1 -0.480469 -0.929688 C -0.644531 -0.855469 -0.992188 -0.820312 -1.519531 -0.820312 L -4.5 -0.820312 L -4.5 -0.175781 L -5.1875 -0.175781 L -5.1875 -0.820312 L -6.46875 -0.820312 L -6.996094 -1.695312 L -5.1875 -1.695312 L -5.1875 -2.578125 L -4.5 -2.578125 L -4.5 -1.695312 L -1.46875 -1.695312 C -1.21875 -1.695312 -1.058594 -1.710938 -0.984375 -1.742188 C -0.914062 -1.773438 -0.859375 -1.820312 -0.816406 -1.890625 C -0.773438 -1.960938 -0.75 -2.0625 -0.75 -2.191406 C -0.75 -2.289062 -0.761719 -2.417969 -0.785156 -2.578125 Z M -0.785156 -2.578125 "/>
</g>
<g id="glyph-2-6">
<path d="M -6.148438 -0.664062 L -7.15625 -0.664062 L -7.15625 -1.542969 L -6.148438 -1.542969 L -6.148438 -0.664062 M 0 -0.664062 L -5.1875 -0.664062 L -5.1875 -1.542969 L 0 -1.542969 Z M 0 -0.664062 "/>
</g>
<g id="glyph-2-7">
<path d="M 0 -2.101562 L -5.1875 -0.128906 L -5.1875 -1.054688 L -2.078125 -2.167969 C -1.746094 -2.289062 -1.394531 -2.398438 -1.035156 -2.5 C -1.308594 -2.578125 -1.636719 -2.6875 -2.023438 -2.828125 L -5.1875 -3.980469 L -5.1875 -4.882812 L 0 -2.921875 Z M 0 -2.101562 "/>
</g>
<g id="glyph-2-8">
<path d="M -1.667969 -4.210938 L -1.558594 -5.117188 C -1.027344 -4.972656 -0.613281 -4.707031 -0.320312 -4.320312 C -0.03125 -3.933594 0.117188 -3.4375 0.117188 -2.835938 C 0.117188 -2.078125 -0.117188 -1.476562 -0.582031 -1.03125 C -1.050781 -0.589844 -1.707031 -0.367188 -2.546875 -0.367188 C -3.421875 -0.367188 -4.097656 -0.589844 -4.578125 -1.039062 C -5.0625 -1.488281 -5.304688 -2.070312 -5.304688 -2.789062 C -5.304688 -3.480469 -5.066406 -4.046875 -4.59375 -4.488281 C -4.121094 -4.925781 -3.457031 -5.148438 -2.601562 -5.148438 C -2.550781 -5.148438 -2.472656 -5.144531 -2.367188 -5.140625 L -2.367188 -1.273438 C -1.796875 -1.308594 -1.363281 -1.46875 -1.058594 -1.757812 C -0.757812 -2.046875 -0.605469 -2.410156 -0.605469 -2.84375 C -0.605469 -3.164062 -0.691406 -3.4375 -0.859375 -3.667969 C -1.027344 -3.894531 -1.296875 -4.074219 -1.667969 -4.210938 M -3.089844 -1.324219 L -3.089844 -4.21875 C -3.527344 -4.179688 -3.855469 -4.070312 -4.070312 -3.886719 C -4.410156 -3.605469 -4.578125 -3.242188 -4.578125 -2.796875 C -4.578125 -2.394531 -4.445312 -2.054688 -4.175781 -1.78125 C -3.90625 -1.503906 -3.542969 -1.351562 -3.089844 -1.324219 Z M -3.089844 -1.324219 "/>
</g>
<g id="glyph-2-9">
</g>
<g id="glyph-2-10">
<path d="M 0 -1.617188 L -5.1875 -0.03125 L -5.1875 -0.9375 L -2.191406 -1.761719 L -1.078125 -2.070312 C -1.132812 -2.082031 -1.492188 -2.171875 -2.148438 -2.339844 L -5.1875 -3.164062 L -5.1875 -4.066406 L -2.175781 -4.84375 L -1.1875 -5.101562 L -5.1875 -6.289062 L -5.1875 -7.144531 L 0 -5.523438 L 0 -4.609375 L -3.105469 -3.785156 L -3.988281 -3.585938 L 0 -2.535156 Z M 0 -1.617188 "/>
</g>
<g id="glyph-2-11">
<path d="M 0 -0.867188 L -4.5 -0.871094 L -4.5 -0.09375 L -5.1875 -0.09375 L -5.1875 -0.871094 L -5.738281 -0.871094 C -6.085938 -0.871094 -6.34375 -0.898438 -6.515625 -0.960938 C -6.742188 -1.046875 -6.925781 -1.195312 -7.066406 -1.410156 C -7.210938 -1.621094 -7.28125 -1.921875 -7.28125 -2.304688 C -7.28125 -2.550781 -7.25 -2.824219 -7.191406 -3.125 L -6.425781 -2.992188 C -6.457031 -2.8125 -6.476562 -2.636719 -6.476562 -2.476562 C -6.476562 -2.207031 -6.417969 -2.019531 -6.304688 -1.910156 C -6.191406 -1.796875 -5.976562 -1.742188 -5.664062 -1.742188 L -5.1875 -1.742188 L -5.1875 -2.753906 L -4.5 -2.753906 L -4.5 -1.742188 L 0 -1.742188 Z M 0 -0.867188 "/>
</g>
<g id="glyph-2-12">
<path d="M 0 -0.648438 L -5.1875 -0.648438 L -5.1875 -1.441406 L -4.398438 -1.441406 C -4.765625 -1.640625 -5.007812 -1.828125 -5.125 -2 C -5.242188 -2.171875 -5.304688 -2.359375 -5.304688 -2.5625 C -5.304688 -2.859375 -5.207031 -3.160156 -5.019531 -3.46875 L -4.203125 -3.164062 C -4.332031 -2.949219 -4.394531 -2.734375 -4.394531 -2.519531 C -4.394531 -2.328125 -4.335938 -2.15625 -4.222656 -2.003906 C -4.105469 -1.847656 -3.945312 -1.738281 -3.742188 -1.675781 C -3.429688 -1.578125 -3.085938 -1.527344 -2.714844 -1.527344 L 0 -1.527344 Z M 0 -0.648438 "/>
</g>
<g id="glyph-2-13">
<path d="M -2.148438 -0.316406 L -3.03125 -0.316406 L -3.03125 -3.015625 L -2.148438 -3.015625 Z M -2.148438 -0.316406 "/>
</g>
<g id="glyph-2-14">
<path d="M 1.988281 -3.964844 L -0.550781 -3.964844 C -0.359375 -3.828125 -0.199219 -3.636719 -0.0742188 -3.390625 C 0.0546875 -3.144531 0.117188 -2.882812 0.117188 -2.609375 C 0.117188 -1.992188 -0.128906 -1.460938 -0.621094 -1.019531 C -1.113281 -0.574219 -1.785156 -0.351562 -2.640625 -0.351562 C -3.164062 -0.351562 -3.628906 -0.441406 -4.042969 -0.621094 C -4.457031 -0.804688 -4.769531 -1.066406 -4.984375 -1.410156 C -5.195312 -1.753906 -5.304688 -2.128906 -5.304688 -2.539062 C -5.304688 -3.179688 -5.03125 -3.683594 -4.492188 -4.054688 L -5.1875 -4.054688 L -5.1875 -4.84375 L 1.988281 -4.84375 L 1.988281 -3.964844 M -2.609375 -1.253906 C -1.941406 -1.253906 -1.441406 -1.394531 -1.105469 -1.675781 C -0.773438 -1.953125 -0.605469 -2.289062 -0.605469 -2.679688 C -0.605469 -3.054688 -0.765625 -3.378906 -1.082031 -3.648438 C -1.398438 -3.917969 -1.882812 -4.054688 -2.527344 -4.054688 C -3.21875 -4.054688 -3.738281 -3.910156 -4.085938 -3.625 C -4.433594 -3.339844 -4.609375 -3.007812 -4.609375 -2.621094 C -4.609375 -2.242188 -4.449219 -1.917969 -4.125 -1.652344 C -3.800781 -1.386719 -3.292969 -1.253906 -2.609375 -1.253906 Z M -2.609375 -1.253906 "/>
</g>
<g id="glyph-2-15">
<path d="M 0 -0.660156 L -5.1875 -0.660156 L -5.1875 -1.449219 L -4.449219 -1.449219 C -5.019531 -1.832031 -5.304688 -2.382812 -5.304688 -3.101562 C -5.304688 -3.414062 -5.246094 -3.699219 -5.132812 -3.960938 C -5.023438 -4.222656 -4.875 -4.421875 -4.691406 -4.550781 C -4.511719 -4.679688 -4.292969 -4.773438 -4.042969 -4.824219 C -3.878906 -4.855469 -3.59375 -4.875 -3.1875 -4.875 L 0 -4.875 L 0 -3.992188 L -3.152344 -3.992188 C -3.511719 -3.992188 -3.78125 -3.960938 -3.957031 -3.890625 C -4.136719 -3.824219 -4.277344 -3.703125 -4.382812 -3.527344 C -4.488281 -3.355469 -4.539062 -3.148438 -4.539062 -2.914062 C -4.539062 -2.539062 -4.421875 -2.21875 -4.183594 -1.945312 C -3.945312 -1.675781 -3.496094 -1.539062 -2.832031 -1.539062 L 0 -1.539062 Z M 0 -0.660156 "/>
</g>
<g id="glyph-2-16">
<path d="M 2.105469 -2.339844 C 1.492188 -1.855469 0.777344 -1.445312 -0.0429688 -1.109375 C -0.863281 -0.773438 -1.714844 -0.605469 -2.59375 -0.605469 C -3.367188 -0.605469 -4.109375 -0.730469 -4.820312 -0.980469 C -5.644531 -1.273438 -6.464844 -1.726562 -7.28125 -2.339844 L -7.28125 -2.96875 C -6.601562 -2.574219 -6.121094 -2.316406 -5.828125 -2.1875 C -5.382812 -1.988281 -4.910156 -1.832031 -4.421875 -1.71875 C -3.816406 -1.578125 -3.203125 -1.507812 -2.585938 -1.507812 C -1.023438 -1.507812 0.542969 -1.996094 2.105469 -2.96875 Z M 2.105469 -2.339844 "/>
</g>
<g id="glyph-2-17">
<path d="M -1.546875 -0.308594 L -1.683594 -1.175781 C -1.335938 -1.226562 -1.070312 -1.363281 -0.882812 -1.585938 C -0.699219 -1.808594 -0.605469 -2.117188 -0.605469 -2.519531 C -0.605469 -2.921875 -0.6875 -3.222656 -0.851562 -3.417969 C -1.015625 -3.613281 -1.210938 -3.710938 -1.429688 -3.710938 C -1.628906 -3.710938 -1.785156 -3.625 -1.898438 -3.453125 C -1.976562 -3.332031 -2.078125 -3.03125 -2.195312 -2.554688 C -2.359375 -1.910156 -2.5 -1.460938 -2.621094 -1.214844 C -2.738281 -0.964844 -2.902344 -0.777344 -3.113281 -0.648438 C -3.324219 -0.519531 -3.554688 -0.453125 -3.808594 -0.453125 C -4.039062 -0.453125 -4.253906 -0.507812 -4.449219 -0.613281 C -4.648438 -0.71875 -4.8125 -0.863281 -4.941406 -1.046875 C -5.042969 -1.183594 -5.128906 -1.367188 -5.199219 -1.605469 C -5.269531 -1.839844 -5.304688 -2.09375 -5.304688 -2.363281 C -5.304688 -2.769531 -5.242188 -3.128906 -5.125 -3.433594 C -5.007812 -3.742188 -4.851562 -3.96875 -4.652344 -4.117188 C -4.449219 -4.261719 -4.183594 -4.363281 -3.847656 -4.417969 L -3.730469 -3.558594 C -3.996094 -3.519531 -4.207031 -3.40625 -4.355469 -3.21875 C -4.503906 -3.03125 -4.578125 -2.769531 -4.578125 -2.425781 C -4.578125 -2.023438 -4.511719 -1.734375 -4.378906 -1.5625 C -4.246094 -1.390625 -4.089844 -1.304688 -3.910156 -1.304688 C -3.796875 -1.304688 -3.695312 -1.339844 -3.601562 -1.410156 C -3.507812 -1.484375 -3.429688 -1.59375 -3.367188 -1.75 C -3.335938 -1.835938 -3.261719 -2.09375 -3.144531 -2.523438 C -2.976562 -3.144531 -2.84375 -3.578125 -2.738281 -3.824219 C -2.632812 -4.070312 -2.476562 -4.265625 -2.273438 -4.40625 C -2.074219 -4.542969 -1.824219 -4.613281 -1.523438 -4.613281 C -1.230469 -4.613281 -0.953125 -4.527344 -0.695312 -4.359375 C -0.4375 -4.1875 -0.238281 -3.941406 -0.09375 -3.617188 C 0.046875 -3.296875 0.117188 -2.929688 0.117188 -2.523438 C 0.117188 -1.851562 -0.0234375 -1.335938 -0.300781 -0.984375 C -0.582031 -0.628906 -0.996094 -0.40625 -1.546875 -0.308594 Z M -1.546875 -0.308594 "/>
</g>
<g id="glyph-2-18">
<path d="M 0 -0.890625 L -1 -0.890625 L -1 -1.890625 L 0 -1.890625 C 0.367188 -1.890625 0.664062 -1.824219 0.890625 -1.695312 C 1.117188 -1.5625 1.292969 -1.359375 1.414062 -1.074219 L 1.039062 -0.828125 C 0.957031 -1.015625 0.839844 -1.152344 0.679688 -1.242188 C 0.523438 -1.328125 0.296875 -1.375 0 -1.386719 Z M 0 -0.890625 "/>
</g>
<g id="glyph-2-19">
<path d="M -2.59375 -0.332031 C -3.554688 -0.332031 -4.265625 -0.597656 -4.726562 -1.132812 C -5.109375 -1.578125 -5.304688 -2.121094 -5.304688 -2.765625 C -5.304688 -3.476562 -5.070312 -4.058594 -4.601562 -4.511719 C -4.136719 -4.964844 -3.488281 -5.191406 -2.664062 -5.191406 C -2 -5.191406 -1.472656 -5.089844 -1.089844 -4.890625 C -0.707031 -4.691406 -0.410156 -4.398438 -0.199219 -4.015625 C 0.0117188 -3.632812 0.117188 -3.214844 0.117188 -2.765625 C 0.117188 -2.039062 -0.117188 -1.449219 -0.582031 -1.003906 C -1.046875 -0.554688 -1.71875 -0.332031 -2.59375 -0.332031 M -2.59375 -1.234375 C -1.929688 -1.234375 -1.429688 -1.378906 -1.101562 -1.671875 C -0.769531 -1.960938 -0.605469 -2.324219 -0.605469 -2.765625 C -0.605469 -3.199219 -0.769531 -3.5625 -1.101562 -3.851562 C -1.433594 -4.140625 -1.941406 -4.289062 -2.621094 -4.289062 C -3.261719 -4.289062 -3.75 -4.140625 -4.078125 -3.851562 C -4.410156 -3.558594 -4.574219 -3.195312 -4.574219 -2.765625 C -4.574219 -2.324219 -4.410156 -1.960938 -4.082031 -1.671875 C -3.753906 -1.378906 -3.257812 -1.234375 -2.59375 -1.234375 Z M -2.59375 -1.234375 "/>
</g>
<g id="glyph-2-20">
<path d="M 0.429688 -0.5 L 0.558594 -1.351562 C 0.820312 -1.386719 1.011719 -1.488281 1.132812 -1.648438 C 1.296875 -1.867188 1.378906 -2.167969 1.378906 -2.542969 C 1.378906 -2.949219 1.296875 -3.265625 1.132812 -3.484375 C 0.96875 -3.707031 0.742188 -3.859375 0.449219 -3.9375 C 0.269531 -3.980469 -0.105469 -4.003906 -0.679688 -4 C -0.226562 -3.613281 0 -3.136719 0 -2.5625 C 0 -1.851562 -0.257812 -1.296875 -0.769531 -0.90625 C -1.285156 -0.519531 -1.902344 -0.324219 -2.621094 -0.324219 C -3.117188 -0.324219 -3.574219 -0.410156 -3.992188 -0.589844 C -4.410156 -0.769531 -4.734375 -1.03125 -4.960938 -1.371094 C -5.1875 -1.710938 -5.304688 -2.109375 -5.304688 -2.570312 C -5.304688 -3.179688 -5.054688 -3.683594 -4.5625 -4.082031 L -5.1875 -4.082031 L -5.1875 -4.890625 L -0.703125 -4.890625 C 0.105469 -4.890625 0.675781 -4.808594 1.011719 -4.644531 C 1.351562 -4.480469 1.617188 -4.222656 1.8125 -3.863281 C 2.007812 -3.507812 2.105469 -3.070312 2.105469 -2.546875 C 2.105469 -1.929688 1.964844 -1.429688 1.6875 -1.050781 C 1.410156 -0.667969 0.988281 -0.484375 0.429688 -0.5 M -2.6875 -1.226562 C -2.003906 -1.226562 -1.507812 -1.359375 -1.195312 -1.632812 C -0.882812 -1.902344 -0.726562 -2.238281 -0.726562 -2.648438 C -0.726562 -3.050781 -0.882812 -3.390625 -1.195312 -3.664062 C -1.503906 -3.933594 -1.992188 -4.070312 -2.65625 -4.070312 C -3.289062 -4.070312 -3.769531 -3.929688 -4.09375 -3.648438 C -4.414062 -3.367188 -4.574219 -3.027344 -4.574219 -2.632812 C -4.574219 -2.242188 -4.417969 -1.910156 -4.097656 -1.636719 C -3.78125 -1.363281 -3.3125 -1.226562 -2.6875 -1.226562 Z M -2.6875 -1.226562 "/>
</g>
<g id="glyph-2-21">
<path d="M -1.898438 -4.042969 L -1.785156 -4.90625 C -1.191406 -4.8125 -0.726562 -4.570312 -0.386719 -4.183594 C -0.0507812 -3.792969 0.117188 -3.316406 0.117188 -2.75 C 0.117188 -2.039062 -0.113281 -1.46875 -0.578125 -1.039062 C -1.042969 -0.605469 -1.707031 -0.390625 -2.574219 -0.390625 C -3.132812 -0.390625 -3.625 -0.484375 -4.042969 -0.667969 C -4.460938 -0.855469 -4.777344 -1.136719 -4.988281 -1.515625 C -5.199219 -1.894531 -5.304688 -2.308594 -5.304688 -2.753906 C -5.304688 -3.316406 -5.160156 -3.777344 -4.875 -4.136719 C -4.589844 -4.492188 -4.1875 -4.722656 -3.660156 -4.824219 L -3.53125 -3.96875 C -3.878906 -3.886719 -4.140625 -3.746094 -4.316406 -3.539062 C -4.492188 -3.332031 -4.578125 -3.082031 -4.578125 -2.789062 C -4.578125 -2.34375 -4.421875 -1.984375 -4.105469 -1.710938 C -3.785156 -1.433594 -3.285156 -1.292969 -2.597656 -1.292969 C -1.902344 -1.292969 -1.394531 -1.425781 -1.078125 -1.695312 C -0.761719 -1.960938 -0.605469 -2.308594 -0.605469 -2.738281 C -0.605469 -3.085938 -0.710938 -3.371094 -0.921875 -3.601562 C -1.132812 -3.835938 -1.460938 -3.980469 -1.898438 -4.042969 Z M -1.898438 -4.042969 "/>
</g>
<g id="glyph-2-22">
<path d="M 2.105469 -1.234375 L 2.105469 -0.605469 C 0.542969 -1.578125 -1.023438 -2.066406 -2.585938 -2.066406 C -3.199219 -2.066406 -3.808594 -1.996094 -4.410156 -1.855469 C -4.898438 -1.746094 -5.367188 -1.589844 -5.816406 -1.390625 C -6.109375 -1.265625 -6.597656 -1.003906 -7.28125 -0.605469 L -7.28125 -1.234375 C -6.464844 -1.847656 -5.644531 -2.300781 -4.820312 -2.59375 C -4.109375 -2.84375 -3.367188 -2.96875 -2.59375 -2.96875 C -1.714844 -2.96875 -0.863281 -2.800781 -0.0429688 -2.464844 C 0.777344 -2.125 1.492188 -1.71875 2.105469 -1.234375 Z M 2.105469 -1.234375 "/>
</g>
<g id="glyph-3-0">
<path d="M 0.792969 0 L 0.792969 -6.085938 L 1.597656 -6.085938 L 1.597656 0 Z M 0.792969 0 "/>
</g>
<g id="glyph-3-1">
<path d="M 0.542969 0 L 0.542969 -6.085938 L 1.289062 -6.085938 L 1.289062 0 Z M 0.542969 0 "/>
</g>
<g id="glyph-3-2">
<path d="M 3.449219 0 L 3.449219 -0.648438 C 3.105469 -0.148438 2.640625 0.101562 2.050781 0.101562 C 1.789062 0.101562 1.546875 0.0507812 1.320312 -0.0507812 C 1.097656 -0.148438 0.929688 -0.273438 0.820312 -0.425781 C 0.710938 -0.578125 0.632812 -0.761719 0.589844 -0.980469 C 0.558594 -1.125 0.542969 -1.359375 0.542969 -1.675781 L 0.542969 -4.40625 L 1.289062 -4.40625 L 1.289062 -1.964844 C 1.289062 -1.574219 1.304688 -1.308594 1.335938 -1.175781 C 1.382812 -0.976562 1.484375 -0.824219 1.636719 -0.710938 C 1.789062 -0.601562 1.976562 -0.542969 2.199219 -0.542969 C 2.421875 -0.542969 2.632812 -0.601562 2.832031 -0.714844 C 3.027344 -0.832031 3.167969 -0.988281 3.246094 -1.183594 C 3.328125 -1.382812 3.371094 -1.667969 3.371094 -2.046875 L 3.371094 -4.40625 L 4.117188 -4.40625 L 4.117188 0 Z M 3.449219 0 "/>
</g>
<g id="glyph-3-3">
<path d="M 0.261719 -1.316406 L 1 -1.433594 C 1.042969 -1.136719 1.15625 -0.910156 1.347656 -0.75 C 1.535156 -0.59375 1.800781 -0.515625 2.140625 -0.515625 C 2.484375 -0.515625 2.738281 -0.585938 2.90625 -0.722656 C 3.070312 -0.863281 3.15625 -1.027344 3.15625 -1.214844 C 3.15625 -1.386719 3.082031 -1.519531 2.933594 -1.613281 C 2.832031 -1.679688 2.578125 -1.765625 2.171875 -1.867188 C 1.621094 -2.007812 1.242188 -2.125 1.03125 -2.226562 C 0.820312 -2.328125 0.660156 -2.46875 0.550781 -2.644531 C 0.441406 -2.824219 0.386719 -3.023438 0.386719 -3.238281 C 0.386719 -3.433594 0.429688 -3.617188 0.519531 -3.78125 C 0.609375 -3.949219 0.734375 -4.089844 0.886719 -4.199219 C 1.003906 -4.285156 1.164062 -4.359375 1.363281 -4.417969 C 1.5625 -4.476562 1.777344 -4.507812 2.007812 -4.507812 C 2.355469 -4.507812 2.660156 -4.457031 2.917969 -4.359375 C 3.179688 -4.257812 3.375 -4.125 3.5 -3.953125 C 3.625 -3.78125 3.710938 -3.554688 3.757812 -3.269531 L 3.027344 -3.171875 C 2.992188 -3.398438 2.894531 -3.574219 2.738281 -3.703125 C 2.578125 -3.828125 2.351562 -3.894531 2.0625 -3.894531 C 1.71875 -3.894531 1.476562 -3.835938 1.328125 -3.722656 C 1.179688 -3.609375 1.109375 -3.476562 1.109375 -3.324219 C 1.109375 -3.226562 1.136719 -3.140625 1.199219 -3.0625 C 1.261719 -2.984375 1.355469 -2.917969 1.484375 -2.863281 C 1.5625 -2.835938 1.78125 -2.773438 2.144531 -2.671875 C 2.675781 -2.53125 3.042969 -2.417969 3.25 -2.328125 C 3.460938 -2.238281 3.625 -2.105469 3.742188 -1.933594 C 3.863281 -1.761719 3.921875 -1.550781 3.921875 -1.296875 C 3.921875 -1.046875 3.847656 -0.8125 3.703125 -0.589844 C 3.558594 -0.371094 3.347656 -0.203125 3.074219 -0.0820312 C 2.800781 0.0390625 2.492188 0.101562 2.144531 0.101562 C 1.574219 0.101562 1.136719 -0.0195312 0.835938 -0.257812 C 0.535156 -0.496094 0.34375 -0.847656 0.261719 -1.316406 Z M 0.261719 -1.316406 "/>
</g>
<g id="glyph-3-4">
<path d="M 2.191406 -0.667969 L 2.300781 -0.0078125 C 2.089844 0.0351562 1.902344 0.0585938 1.734375 0.0585938 C 1.464844 0.0585938 1.253906 0.015625 1.105469 -0.0703125 C 0.953125 -0.15625 0.847656 -0.269531 0.789062 -0.410156 C 0.726562 -0.546875 0.695312 -0.84375 0.695312 -1.289062 L 0.695312 -3.828125 L 0.148438 -3.828125 L 0.148438 -4.40625 L 0.695312 -4.40625 L 0.695312 -5.5 L 1.441406 -5.949219 L 1.441406 -4.40625 L 2.191406 -4.40625 L 2.191406 -3.828125 L 1.441406 -3.828125 L 1.441406 -1.25 C 1.441406 -1.035156 1.453125 -0.898438 1.480469 -0.839844 C 1.507812 -0.777344 1.546875 -0.730469 1.609375 -0.691406 C 1.667969 -0.65625 1.753906 -0.640625 1.863281 -0.640625 C 1.945312 -0.640625 2.054688 -0.648438 2.191406 -0.667969 Z M 2.191406 -0.667969 "/>
</g>
<g id="glyph-3-5">
<path d="M 0.550781 0 L 0.550781 -4.40625 L 1.222656 -4.40625 L 1.222656 -3.738281 C 1.394531 -4.050781 1.554688 -4.257812 1.699219 -4.359375 C 1.84375 -4.457031 2.003906 -4.507812 2.179688 -4.507812 C 2.429688 -4.507812 2.6875 -4.425781 2.945312 -4.265625 L 2.6875 -3.574219 C 2.507812 -3.679688 2.324219 -3.734375 2.140625 -3.734375 C 1.976562 -3.734375 1.832031 -3.6875 1.703125 -3.589844 C 1.570312 -3.488281 1.480469 -3.351562 1.421875 -3.179688 C 1.339844 -2.914062 1.300781 -2.625 1.300781 -2.308594 L 1.300781 0 Z M 0.550781 0 "/>
</g>
<g id="glyph-3-6">
<path d="M 3.4375 -0.542969 C 3.160156 -0.308594 2.894531 -0.140625 2.636719 -0.046875 C 2.382812 0.0507812 2.105469 0.101562 1.8125 0.101562 C 1.328125 0.101562 0.957031 -0.0195312 0.695312 -0.253906 C 0.4375 -0.492188 0.308594 -0.792969 0.308594 -1.164062 C 0.308594 -1.378906 0.355469 -1.574219 0.453125 -1.753906 C 0.550781 -1.933594 0.679688 -2.074219 0.839844 -2.183594 C 1 -2.289062 1.179688 -2.371094 1.378906 -2.429688 C 1.523438 -2.464844 1.746094 -2.503906 2.042969 -2.539062 C 2.644531 -2.613281 3.089844 -2.699219 3.375 -2.796875 C 3.378906 -2.898438 3.378906 -2.964844 3.378906 -2.992188 C 3.378906 -3.296875 3.308594 -3.511719 3.167969 -3.636719 C 2.976562 -3.804688 2.691406 -3.890625 2.316406 -3.890625 C 1.964844 -3.890625 1.707031 -3.828125 1.539062 -3.703125 C 1.371094 -3.582031 1.246094 -3.363281 1.167969 -3.050781 L 0.4375 -3.148438 C 0.503906 -3.460938 0.613281 -3.714844 0.765625 -3.90625 C 0.914062 -4.101562 1.136719 -4.246094 1.421875 -4.351562 C 1.710938 -4.457031 2.042969 -4.507812 2.421875 -4.507812 C 2.800781 -4.507812 3.105469 -4.464844 3.339844 -4.375 C 3.578125 -4.285156 3.75 -4.175781 3.859375 -4.039062 C 3.96875 -3.90625 4.046875 -3.738281 4.09375 -3.53125 C 4.117188 -3.40625 4.128906 -3.175781 4.128906 -2.84375 L 4.128906 -1.847656 C 4.128906 -1.152344 4.144531 -0.714844 4.175781 -0.527344 C 4.210938 -0.34375 4.273438 -0.167969 4.367188 0 L 3.585938 0 C 3.507812 -0.15625 3.457031 -0.335938 3.4375 -0.542969 M 3.375 -2.210938 C 3.101562 -2.101562 2.695312 -2.007812 2.152344 -1.929688 C 1.847656 -1.886719 1.628906 -1.835938 1.503906 -1.78125 C 1.375 -1.726562 1.277344 -1.644531 1.207031 -1.539062 C 1.136719 -1.429688 1.105469 -1.3125 1.105469 -1.183594 C 1.105469 -0.984375 1.179688 -0.816406 1.332031 -0.683594 C 1.480469 -0.550781 1.703125 -0.484375 1.992188 -0.484375 C 2.28125 -0.484375 2.535156 -0.546875 2.761719 -0.675781 C 2.984375 -0.800781 3.148438 -0.972656 3.253906 -1.191406 C 3.335938 -1.359375 3.375 -1.609375 3.375 -1.9375 Z M 3.375 -2.210938 "/>
</g>
<g id="glyph-3-7">
<path d="M 0.5625 -5.226562 L 0.5625 -6.085938 L 1.3125 -6.085938 L 1.3125 -5.226562 L 0.5625 -5.226562 M 0.5625 0 L 0.5625 -4.40625 L 1.3125 -4.40625 L 1.3125 0 Z M 0.5625 0 "/>
</g>
<g id="glyph-3-8">
<path d="M 1.785156 0 L 0.109375 -4.40625 L 0.898438 -4.40625 L 1.84375 -1.769531 C 1.945312 -1.484375 2.039062 -1.1875 2.125 -0.878906 C 2.191406 -1.113281 2.285156 -1.390625 2.402344 -1.71875 L 3.382812 -4.40625 L 4.148438 -4.40625 L 2.480469 0 Z M 1.785156 0 "/>
</g>
<g id="glyph-3-9">
<path d="M 3.578125 -1.417969 L 4.351562 -1.324219 C 4.226562 -0.871094 4.003906 -0.523438 3.671875 -0.273438 C 3.34375 -0.0234375 2.921875 0.101562 2.410156 0.101562 C 1.765625 0.101562 1.253906 -0.0976562 0.878906 -0.496094 C 0.5 -0.894531 0.3125 -1.449219 0.3125 -2.167969 C 0.3125 -2.90625 0.503906 -3.484375 0.882812 -3.894531 C 1.265625 -4.300781 1.761719 -4.507812 2.371094 -4.507812 C 2.960938 -4.507812 3.441406 -4.308594 3.8125 -3.90625 C 4.1875 -3.503906 4.375 -2.941406 4.375 -2.210938 C 4.375 -2.167969 4.375 -2.101562 4.371094 -2.011719 L 1.082031 -2.011719 C 1.109375 -1.527344 1.246094 -1.15625 1.492188 -0.902344 C 1.742188 -0.644531 2.046875 -0.515625 2.414062 -0.515625 C 2.6875 -0.515625 2.921875 -0.585938 3.117188 -0.730469 C 3.3125 -0.875 3.464844 -1.105469 3.578125 -1.417969 M 1.125 -2.628906 L 3.585938 -2.628906 C 3.550781 -2.996094 3.457031 -3.277344 3.304688 -3.460938 C 3.066406 -3.75 2.757812 -3.894531 2.378906 -3.894531 C 2.035156 -3.894531 1.746094 -3.777344 1.511719 -3.546875 C 1.277344 -3.320312 1.148438 -3.011719 1.125 -2.628906 Z M 1.125 -2.628906 "/>
</g>
<g id="glyph-3-10">
<path d="M 0.753906 -3.558594 L 0.753906 -4.40625 L 1.605469 -4.40625 L 1.605469 -3.558594 L 0.753906 -3.558594 M 0.753906 0 L 0.753906 -0.851562 L 1.605469 -0.851562 L 1.605469 0 C 1.605469 0.3125 1.550781 0.566406 1.441406 0.757812 C 1.328125 0.949219 1.152344 1.097656 0.914062 1.203125 L 0.707031 0.882812 C 0.863281 0.816406 0.980469 0.714844 1.054688 0.578125 C 1.128906 0.445312 1.171875 0.25 1.179688 0 Z M 0.753906 0 "/>
</g>
<g id="glyph-3-11">
</g>
<g id="glyph-3-12">
<path d="M 0.558594 0 L 0.558594 -4.40625 L 1.234375 -4.40625 L 1.234375 -3.78125 C 1.554688 -4.265625 2.023438 -4.507812 2.636719 -4.507812 C 2.902344 -4.507812 3.144531 -4.460938 3.367188 -4.363281 C 3.589844 -4.269531 3.757812 -4.144531 3.867188 -3.988281 C 3.980469 -3.832031 4.054688 -3.648438 4.101562 -3.4375 C 4.128906 -3.296875 4.140625 -3.054688 4.140625 -2.710938 L 4.140625 0 L 3.394531 0 L 3.394531 -2.679688 C 3.394531 -2.984375 3.367188 -3.214844 3.308594 -3.363281 C 3.25 -3.515625 3.148438 -3.636719 3 -3.726562 C 2.851562 -3.816406 2.675781 -3.859375 2.476562 -3.859375 C 2.160156 -3.859375 1.886719 -3.757812 1.652344 -3.558594 C 1.421875 -3.355469 1.308594 -2.972656 1.308594 -2.40625 L 1.308594 0 Z M 0.558594 0 "/>
</g>
<g id="glyph-3-13">
<path d="M 0.28125 -2.203125 C 0.28125 -3.019531 0.507812 -3.625 0.960938 -4.015625 C 1.34375 -4.34375 1.804688 -4.507812 2.347656 -4.507812 C 2.953125 -4.507812 3.449219 -4.308594 3.835938 -3.910156 C 4.21875 -3.515625 4.410156 -2.964844 4.410156 -2.265625 C 4.410156 -1.699219 4.328125 -1.253906 4.15625 -0.925781 C 3.988281 -0.601562 3.738281 -0.351562 3.414062 -0.171875 C 3.089844 0.0078125 2.734375 0.101562 2.347656 0.101562 C 1.730469 0.101562 1.234375 -0.0976562 0.851562 -0.492188 C 0.472656 -0.890625 0.28125 -1.460938 0.28125 -2.203125 M 1.050781 -2.203125 C 1.050781 -1.640625 1.171875 -1.214844 1.417969 -0.9375 C 1.664062 -0.65625 1.976562 -0.515625 2.347656 -0.515625 C 2.71875 -0.515625 3.027344 -0.65625 3.273438 -0.9375 C 3.519531 -1.21875 3.644531 -1.652344 3.644531 -2.230469 C 3.644531 -2.773438 3.519531 -3.1875 3.273438 -3.46875 C 3.023438 -3.75 2.71875 -3.890625 2.347656 -3.890625 C 1.976562 -3.890625 1.664062 -3.75 1.417969 -3.46875 C 1.171875 -3.191406 1.050781 -2.769531 1.050781 -2.203125 Z M 1.050781 -2.203125 "/>
</g>
<g id="glyph-3-14">
<path d="M 0.558594 0 L 0.558594 -4.40625 L 1.226562 -4.40625 L 1.226562 -3.789062 C 1.367188 -4.003906 1.550781 -4.179688 1.78125 -4.308594 C 2.011719 -4.441406 2.273438 -4.507812 2.566406 -4.507812 C 2.890625 -4.507812 3.160156 -4.441406 3.367188 -4.304688 C 3.578125 -4.167969 3.722656 -3.980469 3.808594 -3.734375 C 4.160156 -4.25 4.613281 -4.507812 5.171875 -4.507812 C 5.609375 -4.507812 5.945312 -4.386719 6.179688 -4.144531 C 6.414062 -3.902344 6.53125 -3.527344 6.53125 -3.027344 L 6.53125 0 L 5.789062 0 L 5.789062 -2.777344 C 5.789062 -3.074219 5.765625 -3.289062 5.71875 -3.421875 C 5.667969 -3.554688 5.582031 -3.660156 5.453125 -3.738281 C 5.328125 -3.820312 5.175781 -3.859375 5.003906 -3.859375 C 4.695312 -3.859375 4.4375 -3.757812 4.234375 -3.550781 C 4.027344 -3.34375 3.925781 -3.015625 3.925781 -2.5625 L 3.925781 0 L 3.179688 0 L 3.179688 -2.863281 C 3.179688 -3.195312 3.117188 -3.445312 2.996094 -3.609375 C 2.875 -3.777344 2.675781 -3.859375 2.398438 -3.859375 C 2.1875 -3.859375 1.996094 -3.804688 1.816406 -3.695312 C 1.636719 -3.582031 1.507812 -3.421875 1.429688 -3.207031 C 1.347656 -2.996094 1.308594 -2.6875 1.308594 -2.285156 L 1.308594 0 Z M 0.558594 0 "/>
</g>
<g id="glyph-3-15">
<path d="M 0.558594 1.6875 L 0.558594 -4.40625 L 1.242188 -4.40625 L 1.242188 -3.835938 C 1.402344 -4.058594 1.582031 -4.226562 1.785156 -4.339844 C 1.988281 -4.453125 2.230469 -4.507812 2.519531 -4.507812 C 2.894531 -4.507812 3.226562 -4.410156 3.515625 -4.21875 C 3.804688 -4.023438 4.019531 -3.75 4.167969 -3.398438 C 4.3125 -3.042969 4.386719 -2.65625 4.386719 -2.238281 C 4.386719 -1.785156 4.304688 -1.378906 4.144531 -1.019531 C 3.980469 -0.65625 3.746094 -0.382812 3.4375 -0.1875 C 3.128906 0.00390625 2.804688 0.101562 2.464844 0.101562 C 2.214844 0.101562 1.992188 0.046875 1.796875 -0.0585938 C 1.597656 -0.164062 1.433594 -0.296875 1.308594 -0.457031 L 1.308594 1.6875 L 0.558594 1.6875 M 1.238281 -2.179688 C 1.238281 -1.613281 1.351562 -1.191406 1.582031 -0.921875 C 1.8125 -0.648438 2.089844 -0.515625 2.414062 -0.515625 C 2.746094 -0.515625 3.03125 -0.65625 3.269531 -0.9375 C 3.503906 -1.214844 3.625 -1.652344 3.625 -2.242188 C 3.625 -2.804688 3.507812 -3.222656 3.277344 -3.503906 C 3.046875 -3.78125 2.769531 -3.921875 2.449219 -3.921875 C 2.128906 -3.921875 1.847656 -3.773438 1.605469 -3.476562 C 1.359375 -3.179688 1.238281 -2.746094 1.238281 -2.179688 Z M 1.238281 -2.179688 "/>
</g>
<g id="glyph-3-16">
<path d="M 3.421875 0 L 3.421875 -0.554688 C 3.140625 -0.117188 2.730469 0.101562 2.1875 0.101562 C 1.835938 0.101562 1.511719 0.00390625 1.21875 -0.191406 C 0.921875 -0.382812 0.695312 -0.65625 0.535156 -1.003906 C 0.371094 -1.347656 0.289062 -1.75 0.289062 -2.199219 C 0.289062 -2.640625 0.363281 -3.039062 0.511719 -3.398438 C 0.65625 -3.753906 0.878906 -4.03125 1.171875 -4.222656 C 1.464844 -4.410156 1.792969 -4.507812 2.152344 -4.507812 C 2.417969 -4.507812 2.65625 -4.453125 2.863281 -4.339844 C 3.070312 -4.226562 3.238281 -4.082031 3.371094 -3.902344 L 3.371094 -6.085938 L 4.113281 -6.085938 L 4.113281 0 L 3.421875 0 M 1.058594 -2.199219 C 1.058594 -1.636719 1.175781 -1.214844 1.414062 -0.933594 C 1.652344 -0.65625 1.933594 -0.515625 2.257812 -0.515625 C 2.585938 -0.515625 2.863281 -0.648438 3.089844 -0.914062 C 3.316406 -1.183594 3.433594 -1.589844 3.433594 -2.136719 C 3.433594 -2.742188 3.316406 -3.183594 3.082031 -3.464844 C 2.851562 -3.746094 2.566406 -3.890625 2.226562 -3.890625 C 1.890625 -3.890625 1.613281 -3.753906 1.390625 -3.480469 C 1.167969 -3.210938 1.058594 -2.785156 1.058594 -2.199219 Z M 1.058594 -2.199219 "/>
</g>
<g id="glyph-3-17">
<path d="M 0.558594 0 L 0.558594 -6.085938 L 1.308594 -6.085938 L 1.308594 -3.902344 C 1.65625 -4.304688 2.097656 -4.507812 2.628906 -4.507812 C 2.953125 -4.507812 3.238281 -4.441406 3.476562 -4.3125 C 3.71875 -4.1875 3.890625 -4.007812 3.996094 -3.78125 C 4.097656 -3.554688 4.148438 -3.226562 4.148438 -2.792969 L 4.148438 0 L 3.402344 0 L 3.402344 -2.792969 C 3.402344 -3.167969 3.324219 -3.4375 3.160156 -3.609375 C 3 -3.777344 2.769531 -3.863281 2.472656 -3.863281 C 2.253906 -3.863281 2.042969 -3.804688 1.847656 -3.691406 C 1.652344 -3.578125 1.515625 -3.421875 1.433594 -3.226562 C 1.347656 -3.027344 1.308594 -2.757812 1.308594 -2.410156 L 1.308594 0 Z M 0.558594 0 "/>
</g>
<g id="glyph-3-18">
<path d="M 1.25 0 L 0.554688 0 L 0.554688 -6.085938 L 1.304688 -6.085938 L 1.304688 -3.914062 C 1.617188 -4.308594 2.019531 -4.507812 2.511719 -4.507812 C 2.78125 -4.507812 3.039062 -4.453125 3.28125 -4.34375 C 3.523438 -4.234375 3.722656 -4.082031 3.878906 -3.882812 C 4.035156 -3.683594 4.15625 -3.445312 4.246094 -3.167969 C 4.335938 -2.886719 4.378906 -2.589844 4.378906 -2.269531 C 4.378906 -1.515625 4.191406 -0.929688 3.820312 -0.519531 C 3.445312 -0.105469 2.996094 0.101562 2.472656 0.101562 C 1.953125 0.101562 1.546875 -0.117188 1.25 -0.550781 L 1.25 0 M 1.242188 -2.238281 C 1.242188 -1.707031 1.3125 -1.328125 1.457031 -1.089844 C 1.691406 -0.707031 2.011719 -0.515625 2.410156 -0.515625 C 2.738281 -0.515625 3.019531 -0.65625 3.257812 -0.941406 C 3.496094 -1.222656 3.613281 -1.644531 3.613281 -2.207031 C 3.613281 -2.785156 3.5 -3.207031 3.273438 -3.480469 C 3.042969 -3.757812 2.769531 -3.894531 2.445312 -3.894531 C 2.117188 -3.894531 1.835938 -3.75 1.597656 -3.46875 C 1.359375 -3.183594 1.242188 -2.773438 1.242188 -2.238281 Z M 1.242188 -2.238281 "/>
</g>
<g id="glyph-3-19">
<path d="M 0.738281 0 L 0.738281 -3.828125 L 0.078125 -3.828125 L 0.078125 -4.40625 L 0.738281 -4.40625 L 0.738281 -4.875 C 0.738281 -5.171875 0.765625 -5.394531 0.816406 -5.535156 C 0.890625 -5.730469 1.015625 -5.886719 1.199219 -6.007812 C 1.378906 -6.128906 1.632812 -6.1875 1.960938 -6.1875 C 2.167969 -6.1875 2.402344 -6.164062 2.65625 -6.113281 L 2.542969 -5.460938 C 2.390625 -5.488281 2.242188 -5.503906 2.105469 -5.503906 C 1.878906 -5.503906 1.71875 -5.453125 1.621094 -5.359375 C 1.527344 -5.261719 1.480469 -5.078125 1.480469 -4.8125 L 1.480469 -4.40625 L 2.339844 -4.40625 L 2.339844 -3.828125 L 1.480469 -3.828125 L 1.480469 0 Z M 0.738281 0 "/>
</g>
<g id="glyph-3-20">
<path d="M 3.4375 -1.613281 L 4.171875 -1.519531 C 4.089844 -1.011719 3.886719 -0.617188 3.554688 -0.328125 C 3.222656 -0.0429688 2.816406 0.101562 2.335938 0.101562 C 1.734375 0.101562 1.25 -0.0976562 0.882812 -0.492188 C 0.515625 -0.886719 0.332031 -1.453125 0.332031 -2.1875 C 0.332031 -2.664062 0.410156 -3.078125 0.570312 -3.4375 C 0.726562 -3.792969 0.964844 -4.0625 1.289062 -4.238281 C 1.609375 -4.417969 1.960938 -4.507812 2.339844 -4.507812 C 2.820312 -4.507812 3.210938 -4.386719 3.515625 -4.144531 C 3.820312 -3.902344 4.015625 -3.558594 4.101562 -3.113281 L 3.375 -3 C 3.304688 -3.296875 3.183594 -3.519531 3.007812 -3.667969 C 2.832031 -3.820312 2.617188 -3.894531 2.371094 -3.894531 C 1.992188 -3.894531 1.6875 -3.757812 1.453125 -3.488281 C 1.21875 -3.21875 1.101562 -2.792969 1.101562 -2.207031 C 1.101562 -1.617188 1.214844 -1.1875 1.441406 -0.917969 C 1.667969 -0.648438 1.964844 -0.515625 2.328125 -0.515625 C 2.621094 -0.515625 2.867188 -0.605469 3.0625 -0.785156 C 3.257812 -0.964844 3.382812 -1.242188 3.4375 -1.613281 Z M 3.4375 -1.613281 "/>
</g>
<g id="glyph-3-21">
<path d="M 0.773438 0 L 0.773438 -0.851562 L 1.621094 -0.851562 L 1.621094 0 Z M 0.773438 0 "/>
</g>
</g>
<clipPath id="clip-0">
<path clip-rule="nonzero" d="M 59.699219 186 L 534.023438 186 L 534.023438 188 L 59.699219 188 Z M 59.699219 186 "/>
</clipPath>
<clipPath id="clip-1">
<path clip-rule="nonzero" d="M 59.699219 137 L 534.023438 137 L 534.023438 139 L 59.699219 139 Z M 59.699219 137 "/>
</clipPath>
<clipPath id="clip-2">
<path clip-rule="nonzero" d="M 59.699219 116 L 534.023438 116 L 534.023438 117 L 59.699219 117 Z M 59.699219 116 "/>
</clipPath>
<clipPath id="clip-3">
<path clip-rule="nonzero" d="M 59.699219 88 L 534.023438 88 L 534.023438 89 L 59.699219 89 Z M 59.699219 88 "/>
</clipPath>
<clipPath id="clip-4">
<path clip-rule="nonzero" d="M 59.699219 67 L 534.023438 67 L 534.023438 68 L 59.699219 68 Z M 59.699219 67 "/>
</clipPath>
<clipPath id="clip-5">
<path clip-rule="nonzero" d="M 59.699219 46 L 534.023438 46 L 534.023438 47 L 59.699219 47 Z M 59.699219 46 "/>
</clipPath>
<clipPath id="clip-6">
<path clip-rule="nonzero" d="M 59.699219 24 L 534.023438 24 L 534.023438 26 L 59.699219 26 Z M 59.699219 24 "/>
</clipPath>
<clipPath id="clip-7">
<path clip-rule="nonzero" d="M 63 5.976562 L 65 5.976562 L 65 202.636719 L 63 202.636719 Z M 63 5.976562 "/>
</clipPath>
<clipPath id="clip-8">
<path clip-rule="nonzero" d="M 156 5.976562 L 157 5.976562 L 157 202.636719 L 156 202.636719 Z M 156 5.976562 "/>
</clipPath>
<clipPath id="clip-9">
<path clip-rule="nonzero" d="M 248 5.976562 L 249 5.976562 L 249 202.636719 L 248 202.636719 Z M 248 5.976562 "/>
</clipPath>
<clipPath id="clip-10">
<path clip-rule="nonzero" d="M 340 5.976562 L 341 5.976562 L 341 202.636719 L 340 202.636719 Z M 340 5.976562 "/>
</clipPath>
<clipPath id="clip-11">
<path clip-rule="nonzero" d="M 432 5.976562 L 434 5.976562 L 434 202.636719 L 432 202.636719 Z M 432 5.976562 "/>
</clipPath>
<clipPath id="clip-12">
<path clip-rule="nonzero" d="M 524 5.976562 L 526 5.976562 L 526 202.636719 L 524 202.636719 Z M 524 5.976562 "/>
</clipPath>
<clipPath id="clip-13">
<path clip-rule="nonzero" d="M 63 14 L 453 14 L 453 202.636719 L 63 202.636719 Z M 63 14 "/>
</clipPath>
</defs>
<rect x="-54" y="-32.4" width="648" height="388.8" fill="rgb(100%, 100%, 100%)" fill-opacity="1"/>
<rect x="-54" y="-32.4" width="648" height="388.8" fill="rgb(100%, 100%, 100%)" fill-opacity="1"/>
<g clip-path="url(#clip-0)">
<path fill="none" stroke-width="0.640187" stroke-linecap="butt" stroke-linejoin="round" stroke="rgb(87.843137%, 87.843137%, 87.843137%)" stroke-opacity="1" stroke-miterlimit="10" d="M 59.699219 186.886719 L 534.023438 186.886719 "/>
</g>
<g clip-path="url(#clip-1)">
<path fill="none" stroke-width="0.640187" stroke-linecap="butt" stroke-linejoin="round" stroke="rgb(87.843137%, 87.843137%, 87.843137%)" stroke-opacity="1" stroke-miterlimit="10" d="M 59.699219 137.769531 L 534.023438 137.769531 "/>
</g>
<g clip-path="url(#clip-2)">
<path fill="none" stroke-width="0.640187" stroke-linecap="butt" stroke-linejoin="round" stroke="rgb(87.843137%, 87.843137%, 87.843137%)" stroke-opacity="1" stroke-miterlimit="10" d="M 59.699219 116.613281 L 534.023438 116.613281 "/>
</g>
<g clip-path="url(#clip-3)">
<path fill="none" stroke-width="0.640187" stroke-linecap="butt" stroke-linejoin="round" stroke="rgb(87.843137%, 87.843137%, 87.843137%)" stroke-opacity="1" stroke-miterlimit="10" d="M 59.699219 88.648438 L 534.023438 88.648438 "/>
</g>
<g clip-path="url(#clip-4)">
<path fill="none" stroke-width="0.640187" stroke-linecap="butt" stroke-linejoin="round" stroke="rgb(87.843137%, 87.843137%, 87.843137%)" stroke-opacity="1" stroke-miterlimit="10" d="M 59.699219 67.496094 L 534.023438 67.496094 "/>
</g>
<g clip-path="url(#clip-5)">
<path fill="none" stroke-width="0.640187" stroke-linecap="butt" stroke-linejoin="round" stroke="rgb(87.843137%, 87.843137%, 87.843137%)" stroke-opacity="1" stroke-miterlimit="10" d="M 59.699219 46.339844 L 534.023438 46.339844 "/>
</g>
<g clip-path="url(#clip-6)">
<path fill="none" stroke-width="0.640187" stroke-linecap="butt" stroke-linejoin="round" stroke="rgb(87.843137%, 87.843137%, 87.843137%)" stroke-opacity="1" stroke-miterlimit="10" d="M 59.699219 25.1875 L 534.023438 25.1875 "/>
</g>
<g clip-path="url(#clip-7)">
<path fill="none" stroke-width="0.640187" stroke-linecap="butt" stroke-linejoin="round" stroke="rgb(87.843137%, 87.843137%, 87.843137%)" stroke-opacity="1" stroke-miterlimit="10" d="M 64.304688 202.636719 L 64.304688 5.976562 "/>
</g>
<g clip-path="url(#clip-8)">
<path fill="none" stroke-width="0.640187" stroke-linecap="butt" stroke-linejoin="round" stroke="rgb(87.843137%, 87.843137%, 87.843137%)" stroke-opacity="1" stroke-miterlimit="10" d="M 156.40625 202.636719 L 156.40625 5.976562 "/>
</g>
<g clip-path="url(#clip-9)">
<path fill="none" stroke-width="0.640187" stroke-linecap="butt" stroke-linejoin="round" stroke="rgb(87.843137%, 87.843137%, 87.843137%)" stroke-opacity="1" stroke-miterlimit="10" d="M 248.507812 202.636719 L 248.507812 5.976562 "/>
</g>
<g clip-path="url(#clip-10)">
<path fill="none" stroke-width="0.640187" stroke-linecap="butt" stroke-linejoin="round" stroke="rgb(87.843137%, 87.843137%, 87.843137%)" stroke-opacity="1" stroke-miterlimit="10" d="M 340.609375 202.636719 L 340.609375 5.976562 "/>
</g>
<g clip-path="url(#clip-11)">
<path fill="none" stroke-width="0.640187" stroke-linecap="butt" stroke-linejoin="round" stroke="rgb(87.843137%, 87.843137%, 87.843137%)" stroke-opacity="1" stroke-miterlimit="10" d="M 432.710938 202.636719 L 432.710938 5.976562 "/>
</g>
<g clip-path="url(#clip-12)">
<path fill="none" stroke-width="0.640187" stroke-linecap="butt" stroke-linejoin="round" stroke="rgb(87.843137%, 87.843137%, 87.843137%)" stroke-opacity="1" stroke-miterlimit="10" d="M 524.8125 202.636719 L 524.8125 5.976562 "/>
</g>
<g clip-path="url(#clip-13)">
<path fill="none" stroke-width="2.347352" stroke-linecap="butt" stroke-linejoin="round" stroke="rgb(17.254902%, 37.254902%, 47.843137%)" stroke-opacity="1" stroke-miterlimit="10" d="M 64.304688 202.636719 L 68.910156 181.511719 L 73.515625 152.128906 L 78.117188 135.046875 L 82.722656 123 L 87.328125 113.722656 L 91.933594 106.195312 L 96.539062 99.875 L 101.144531 94.441406 L 105.75 89.6875 L 110.355469 85.464844 L 114.960938 81.679688 L 119.566406 78.25 L 124.167969 75.121094 L 128.773438 72.25 L 133.378906 69.597656 L 137.984375 67.140625 L 142.589844 64.851562 L 147.195312 62.714844 L 151.800781 60.710938 L 156.40625 58.824219 L 161.011719 57.046875 L 165.617188 55.367188 L 170.21875 53.78125 L 174.824219 52.269531 L 179.429688 50.835938 L 184.035156 49.472656 L 188.640625 48.171875 L 193.246094 46.925781 L 197.851562 45.738281 L 202.457031 44.601562 L 207.0625 43.507812 L 211.667969 42.460938 L 216.273438 41.457031 L 220.875 40.488281 L 225.480469 39.554688 L 230.085938 38.660156 L 234.691406 37.792969 L 239.296875 36.957031 L 243.902344 36.152344 L 248.507812 35.371094 L 253.113281 34.617188 L 257.71875 33.886719 L 262.324219 33.175781 L 266.925781 32.492188 L 271.53125 31.824219 L 276.136719 31.179688 L 280.742188 30.550781 L 285.347656 29.941406 L 289.953125 29.347656 L 294.558594 28.769531 L 299.164062 28.207031 L 303.769531 27.660156 L 308.375 27.128906 L 312.976562 26.609375 L 317.582031 26.101562 L 322.1875 25.605469 L 326.792969 25.121094 L 331.398438 24.648438 L 336.003906 24.1875 L 340.609375 23.738281 L 345.214844 23.296875 L 349.820312 22.863281 L 354.425781 22.441406 L 359.027344 22.027344 L 363.632812 21.625 L 368.238281 21.226562 L 372.84375 20.835938 L 377.449219 20.453125 L 382.054688 20.078125 L 386.660156 19.710938 L 391.265625 19.351562 L 395.871094 18.996094 L 400.476562 18.648438 L 405.078125 18.304688 L 409.683594 17.96875 L 414.289062 17.636719 L 418.894531 17.3125 L 423.5 16.992188 L 428.105469 16.675781 L 432.710938 16.367188 L 437.316406 16.0625 L 441.921875 15.761719 L 446.527344 15.464844 L 451.132812 15.171875 "/>
</g>
<path fill="none" stroke-width="2.347352" stroke-linecap="butt" stroke-linejoin="round" stroke="rgb(76.862745%, 47.843137%, 23.921569%)" stroke-opacity="1" stroke-miterlimit="10" d="M 73.515625 167.160156 L 78.117188 150.144531 L 82.722656 138.15625 L 87.328125 128.929688 L 91.933594 121.445312 L 96.539062 115.167969 L 101.144531 109.769531 L 105.75 105.042969 L 110.355469 100.847656 L 114.960938 97.082031 L 119.566406 93.667969 L 124.167969 90.554688 L 128.773438 87.695312 L 133.378906 85.050781 L 137.984375 82.597656 L 142.589844 80.3125 L 147.195312 78.171875 L 151.800781 76.167969 L 156.40625 74.277344 L 161.011719 72.492188 L 165.617188 70.808594 L 170.21875 69.207031 L 174.824219 67.6875 L 179.429688 66.242188 L 184.035156 64.867188 L 188.640625 63.550781 L 193.246094 62.292969 L 197.851562 61.085938 L 202.457031 59.933594 L 207.0625 58.824219 L 211.667969 57.761719 L 216.273438 56.738281 L 220.875 55.75 L 225.480469 54.800781 L 230.085938 53.886719 L 234.691406 53.003906 L 239.296875 52.148438 L 243.902344 51.324219 L 248.507812 50.523438 L 253.113281 49.75 L 257.71875 49.003906 L 262.324219 48.277344 L 266.925781 47.574219 L 271.53125 46.890625 L 276.136719 46.226562 L 280.742188 45.582031 L 285.347656 44.953125 L 289.953125 44.34375 L 294.558594 43.753906 L 299.164062 43.175781 L 303.769531 42.613281 L 308.375 42.066406 L 312.976562 41.53125 L 317.582031 41.011719 L 322.1875 40.503906 L 326.792969 40.007812 L 331.398438 39.527344 L 336.003906 39.054688 L 340.609375 38.59375 L 345.214844 38.140625 L 349.820312 37.699219 L 354.425781 37.269531 L 359.027344 36.847656 L 363.632812 36.433594 L 368.238281 36.03125 L 372.84375 35.636719 L 377.449219 35.246094 L 382.054688 34.867188 L 386.660156 34.496094 L 391.265625 34.128906 L 395.871094 33.773438 L 400.476562 33.421875 L 405.078125 33.078125 L 409.683594 32.738281 L 414.289062 32.40625 L 418.894531 32.082031 L 423.5 31.761719 L 428.105469 31.445312 L 432.710938 31.136719 L 437.316406 30.832031 L 441.921875 30.535156 L 446.527344 30.242188 L 451.132812 29.953125 L 455.734375 29.667969 L 460.339844 29.386719 L 469.550781 28.839844 L 474.15625 28.574219 L 483.367188 28.050781 L 487.972656 27.796875 L 497.183594 27.296875 L 501.785156 27.050781 L 510.996094 26.574219 L 520.207031 26.105469 L 524.8125 25.878906 "/>
<path fill="none" stroke-width="2.347352" stroke-linecap="butt" stroke-linejoin="round" stroke="rgb(41.960784%, 41.960784%, 41.960784%)" stroke-opacity="1" stroke-miterlimit="10" d="M 73.515625 170.984375 L 78.117188 154.015625 L 82.722656 142.078125 L 87.328125 132.898438 L 91.933594 125.460938 L 96.539062 119.226562 L 101.144531 113.871094 L 105.75 109.1875 L 110.355469 105.035156 L 114.960938 101.308594 L 119.566406 97.9375 L 124.167969 94.863281 L 128.773438 92.039062 L 133.378906 89.433594 L 137.984375 87.015625 L 142.589844 84.765625 L 147.195312 82.660156 L 151.800781 80.6875 L 156.40625 78.832031 L 161.011719 77.082031 L 165.617188 75.425781 L 170.21875 73.859375 L 174.824219 72.371094 L 179.429688 70.953125 L 184.035156 69.605469 L 188.640625 68.320312 L 193.246094 67.089844 L 197.851562 65.914062 L 202.457031 64.785156 L 207.0625 63.707031 L 211.667969 62.667969 L 216.273438 61.667969 L 220.875 60.710938 L 225.480469 59.785156 L 230.085938 58.894531 L 234.691406 58.035156 L 239.296875 57.203125 L 243.902344 56.402344 L 248.507812 55.628906 L 253.113281 54.878906 L 257.71875 54.152344 L 262.324219 53.449219 L 266.925781 52.765625 L 271.53125 52.105469 L 276.136719 51.464844 L 280.742188 50.839844 L 285.347656 50.234375 L 289.953125 49.648438 L 294.558594 49.074219 L 299.164062 48.519531 L 303.769531 47.976562 L 308.375 47.449219 L 312.976562 46.9375 L 317.582031 46.4375 L 322.1875 45.949219 L 326.792969 45.472656 L 331.398438 45.007812 L 336.003906 44.554688 L 340.609375 44.113281 L 345.214844 43.679688 L 349.820312 43.257812 L 354.425781 42.84375 L 359.027344 42.441406 L 363.632812 42.046875 L 368.238281 41.660156 L 372.84375 41.285156 L 377.449219 40.914062 L 382.054688 40.554688 L 386.660156 40.199219 L 391.265625 39.851562 L 395.871094 39.511719 L 400.476562 39.175781 L 405.078125 38.851562 L 409.683594 38.53125 L 414.289062 38.214844 L 418.894531 37.90625 L 423.5 37.601562 L 428.105469 37.304688 L 437.316406 36.726562 L 441.921875 36.445312 L 446.527344 36.167969 L 451.132812 35.894531 L 455.734375 35.628906 L 460.339844 35.363281 L 464.945312 35.105469 L 469.550781 34.851562 L 474.15625 34.601562 L 478.761719 34.355469 L 487.972656 33.871094 L 492.578125 33.636719 L 497.183594 33.40625 L 501.785156 33.175781 L 510.996094 32.730469 L 515.601562 32.511719 L 524.8125 32.082031 "/>
<g fill="rgb(30.196078%, 30.196078%, 30.196078%)" fill-opacity="1">
<use xlink:href="#glyph-0-0" x="35.832031" y="190.789062"/>
<use xlink:href="#glyph-0-1" x="41.115479" y="190.789062"/>
<use xlink:href="#glyph-0-0" x="43.754883" y="190.789062"/>
<use xlink:href="#glyph-0-2" x="49.03833" y="190.789062"/>
</g>
<g fill="rgb(30.196078%, 30.196078%, 30.196078%)" fill-opacity="1">
<use xlink:href="#glyph-0-0" x="35.832031" y="141.667969"/>
<use xlink:href="#glyph-0-1" x="41.115479" y="141.667969"/>
<use xlink:href="#glyph-0-0" x="43.754883" y="141.667969"/>
<use xlink:href="#glyph-0-3" x="49.03833" y="141.667969"/>
</g>
<g fill="rgb(30.196078%, 30.196078%, 30.196078%)" fill-opacity="1">
<use xlink:href="#glyph-0-0" x="41.113281" y="120.515625"/>
<use xlink:href="#glyph-0-1" x="46.396729" y="120.515625"/>
<use xlink:href="#glyph-0-2" x="49.036133" y="120.515625"/>
</g>
<g fill="rgb(30.196078%, 30.196078%, 30.196078%)" fill-opacity="1">
<use xlink:href="#glyph-0-0" x="35.832031" y="92.550781"/>
<use xlink:href="#glyph-0-1" x="41.115479" y="92.550781"/>
<use xlink:href="#glyph-0-4" x="43.754883" y="92.550781"/>
<use xlink:href="#glyph-0-3" x="49.03833" y="92.550781"/>
</g>
<g fill="rgb(30.196078%, 30.196078%, 30.196078%)" fill-opacity="1">
<use xlink:href="#glyph-0-0" x="41.113281" y="71.394531"/>
<use xlink:href="#glyph-0-1" x="46.396729" y="71.394531"/>
<use xlink:href="#glyph-0-3" x="49.036133" y="71.394531"/>
</g>
<g fill="rgb(30.196078%, 30.196078%, 30.196078%)" fill-opacity="1">
<use xlink:href="#glyph-0-2" x="49.035156" y="50.242188"/>
</g>
<g fill="rgb(30.196078%, 30.196078%, 30.196078%)" fill-opacity="1">
<use xlink:href="#glyph-0-4" x="49.035156" y="29.085938"/>
</g>
<g fill="rgb(30.196078%, 30.196078%, 30.196078%)" fill-opacity="1">
<use xlink:href="#glyph-0-0" x="61.664062" y="215.816406"/>
</g>
<g fill="rgb(30.196078%, 30.196078%, 30.196078%)" fill-opacity="1">
<use xlink:href="#glyph-0-2" x="151.121094" y="215.816406"/>
<use xlink:href="#glyph-0-0" x="156.404541" y="215.816406"/>
</g>
<g fill="rgb(30.196078%, 30.196078%, 30.196078%)" fill-opacity="1">
<use xlink:href="#glyph-0-4" x="243.222656" y="215.816406"/>
<use xlink:href="#glyph-0-0" x="248.506104" y="215.816406"/>
</g>
<g fill="rgb(30.196078%, 30.196078%, 30.196078%)" fill-opacity="1">
<use xlink:href="#glyph-0-5" x="335.324219" y="215.816406"/>
<use xlink:href="#glyph-0-0" x="340.607666" y="215.816406"/>
</g>
<g fill="rgb(30.196078%, 30.196078%, 30.196078%)" fill-opacity="1">
<use xlink:href="#glyph-0-6" x="427.425781" y="215.816406"/>
<use xlink:href="#glyph-0-0" x="432.709229" y="215.816406"/>
</g>
<g fill="rgb(30.196078%, 30.196078%, 30.196078%)" fill-opacity="1">
<use xlink:href="#glyph-0-3" x="519.527344" y="215.816406"/>
<use xlink:href="#glyph-0-0" x="524.810791" y="215.816406"/>
</g>
<g fill="rgb(0%, 0%, 0%)" fill-opacity="1">
<use xlink:href="#glyph-1-0" x="243.496094" y="229.964844"/>
<use xlink:href="#glyph-1-1" x="250.166016" y="229.964844"/>
<use xlink:href="#glyph-1-2" x="255.727539" y="229.964844"/>
<use xlink:href="#glyph-1-3" x="261.289062" y="229.964844"/>
<use xlink:href="#glyph-1-4" x="264.619141" y="229.964844"/>
<use xlink:href="#glyph-1-5" x="269.619141" y="229.964844"/>
<use xlink:href="#glyph-1-4" x="272.397461" y="229.964844"/>
<use xlink:href="#glyph-1-6" x="277.397461" y="229.964844"/>
<use xlink:href="#glyph-1-7" x="279.619141" y="229.964844"/>
<use xlink:href="#glyph-1-8" x="285.180664" y="229.964844"/>
<use xlink:href="#glyph-1-1" x="290.180664" y="229.964844"/>
<use xlink:href="#glyph-1-5" x="295.742188" y="229.964844"/>
<use xlink:href="#glyph-1-6" x="298.520508" y="229.964844"/>
<use xlink:href="#glyph-1-7" x="300.742188" y="229.964844"/>
<use xlink:href="#glyph-1-9" x="306.303711" y="229.964844"/>
<use xlink:href="#glyph-1-1" x="309.082031" y="229.964844"/>
<use xlink:href="#glyph-1-3" x="314.643555" y="229.964844"/>
<use xlink:href="#glyph-1-10" x="317.973633" y="229.964844"/>
<use xlink:href="#glyph-1-1" x="322.973633" y="229.964844"/>
<use xlink:href="#glyph-1-7" x="328.535156" y="229.964844"/>
<use xlink:href="#glyph-1-9" x="334.09668" y="229.964844"/>
<use xlink:href="#glyph-1-6" x="336.875" y="229.964844"/>
<use xlink:href="#glyph-1-11" x="339.09668" y="229.964844"/>
<use xlink:href="#glyph-1-7" x="344.658203" y="229.964844"/>
</g>
<g fill="rgb(0%, 0%, 0%)" fill-opacity="1">
<use xlink:href="#glyph-2-0" x="14.136719" y="184.628906"/>
<use xlink:href="#glyph-2-1" x="14.136719" y="177.407227"/>
<use xlink:href="#glyph-2-2" x="14.136719" y="171.845703"/>
<use xlink:href="#glyph-2-1" x="14.136719" y="163.515625"/>
<use xlink:href="#glyph-2-3" x="14.136719" y="157.954102"/>
<use xlink:href="#glyph-2-4" x="14.136719" y="155.732422"/>
<use xlink:href="#glyph-2-5" x="14.136719" y="150.170898"/>
<use xlink:href="#glyph-2-6" x="14.136719" y="147.392578"/>
<use xlink:href="#glyph-2-7" x="14.136719" y="145.170898"/>
<use xlink:href="#glyph-2-8" x="14.136719" y="140.170898"/>
<use xlink:href="#glyph-2-9" x="14.136719" y="134.609375"/>
<use xlink:href="#glyph-2-10" x="14.136719" y="131.831055"/>
<use xlink:href="#glyph-2-8" x="14.136719" y="124.609375"/>
<use xlink:href="#glyph-2-3" x="14.136719" y="119.047852"/>
<use xlink:href="#glyph-2-11" x="14.136719" y="116.826172"/>
<use xlink:href="#glyph-2-4" x="14.136719" y="114.047852"/>
<use xlink:href="#glyph-2-12" x="14.136719" y="108.486328"/>
<use xlink:href="#glyph-2-8" x="14.136719" y="105.15625"/>
<use xlink:href="#glyph-2-13" x="14.136719" y="99.594727"/>
<use xlink:href="#glyph-2-8" x="14.136719" y="96.264648"/>
<use xlink:href="#glyph-2-14" x="14.136719" y="90.703125"/>
<use xlink:href="#glyph-2-1" x="14.136719" y="85.141602"/>
<use xlink:href="#glyph-2-6" x="14.136719" y="79.580078"/>
<use xlink:href="#glyph-2-7" x="14.136719" y="77.358398"/>
<use xlink:href="#glyph-2-4" x="14.136719" y="72.358398"/>
<use xlink:href="#glyph-2-3" x="14.136719" y="66.796875"/>
<use xlink:href="#glyph-2-8" x="14.136719" y="64.575195"/>
<use xlink:href="#glyph-2-15" x="14.136719" y="59.013672"/>
<use xlink:href="#glyph-2-5" x="14.136719" y="53.452148"/>
<use xlink:href="#glyph-2-9" x="14.136719" y="50.673828"/>
<use xlink:href="#glyph-2-7" x="14.136719" y="47.895508"/>
<use xlink:href="#glyph-2-4" x="14.136719" y="42.895508"/>
<use xlink:href="#glyph-2-3" x="14.136719" y="37.333984"/>
<use xlink:href="#glyph-2-1" x="14.136719" y="35.112305"/>
<use xlink:href="#glyph-2-8" x="14.136719" y="29.550781"/>
</g>
<g fill="rgb(0%, 0%, 0%)" fill-opacity="1">
<use xlink:href="#glyph-2-16" x="29.734375" y="158.21875"/>
<use xlink:href="#glyph-2-12" x="29.734375" y="154.888672"/>
<use xlink:href="#glyph-2-8" x="29.734375" y="151.558594"/>
<use xlink:href="#glyph-2-3" x="29.734375" y="145.99707"/>
<use xlink:href="#glyph-2-4" x="29.734375" y="143.775391"/>
<use xlink:href="#glyph-2-5" x="29.734375" y="138.213867"/>
<use xlink:href="#glyph-2-6" x="29.734375" y="135.435547"/>
<use xlink:href="#glyph-2-7" x="29.734375" y="133.213867"/>
<use xlink:href="#glyph-2-8" x="29.734375" y="128.213867"/>
<use xlink:href="#glyph-2-9" x="29.734375" y="122.652344"/>
<use xlink:href="#glyph-2-1" x="29.734375" y="119.874023"/>
<use xlink:href="#glyph-2-15" x="29.734375" y="114.3125"/>
<use xlink:href="#glyph-2-6" x="29.734375" y="108.750977"/>
<use xlink:href="#glyph-2-5" x="29.734375" y="106.529297"/>
<use xlink:href="#glyph-2-17" x="29.734375" y="103.750977"/>
<use xlink:href="#glyph-2-18" x="29.734375" y="98.750977"/>
<use xlink:href="#glyph-2-9" x="29.734375" y="95.972656"/>
<use xlink:href="#glyph-2-3" x="29.734375" y="93.194336"/>
<use xlink:href="#glyph-2-19" x="29.734375" y="90.972656"/>
<use xlink:href="#glyph-2-20" x="29.734375" y="85.411133"/>
<use xlink:href="#glyph-2-9" x="29.734375" y="79.849609"/>
<use xlink:href="#glyph-2-17" x="29.734375" y="77.071289"/>
<use xlink:href="#glyph-2-21" x="29.734375" y="72.071289"/>
<use xlink:href="#glyph-2-4" x="29.734375" y="67.071289"/>
<use xlink:href="#glyph-2-3" x="29.734375" y="61.509766"/>
<use xlink:href="#glyph-2-8" x="29.734375" y="59.288086"/>
<use xlink:href="#glyph-2-22" x="29.734375" y="53.726562"/>
</g>
<path fill="none" stroke-width="2.347352" stroke-linecap="butt" stroke-linejoin="round" stroke="rgb(17.254902%, 37.254902%, 47.843137%)" stroke-opacity="1" stroke-miterlimit="10" d="M 62.289062 262.1875 L 83.027344 262.1875 "/>
<path fill="none" stroke-width="2.347352" stroke-linecap="butt" stroke-linejoin="round" stroke="rgb(76.862745%, 47.843137%, 23.921569%)" stroke-opacity="1" stroke-miterlimit="10" d="M 62.289062 276.585938 L 83.027344 276.585938 "/>
<path fill="none" stroke-width="2.347352" stroke-linecap="butt" stroke-linejoin="round" stroke="rgb(41.960784%, 41.960784%, 41.960784%)" stroke-opacity="1" stroke-miterlimit="10" d="M 62.289062 290.988281 L 83.027344 290.988281 "/>
<g fill="rgb(0%, 0%, 0%)" fill-opacity="1">
<use xlink:href="#glyph-1-12" x="91.597656" y="266.265625"/>
<use xlink:href="#glyph-1-1" x="98.819336" y="266.265625"/>
<use xlink:href="#glyph-1-2" x="104.380859" y="266.265625"/>
<use xlink:href="#glyph-1-13" x="109.942383" y="266.265625"/>
<use xlink:href="#glyph-1-9" x="112.164062" y="266.265625"/>
<use xlink:href="#glyph-1-14" x="114.942383" y="266.265625"/>
<use xlink:href="#glyph-1-4" x="120.503906" y="266.265625"/>
<use xlink:href="#glyph-1-15" x="125.503906" y="266.265625"/>
<use xlink:href="#glyph-1-2" x="131.06543" y="266.265625"/>
<use xlink:href="#glyph-1-7" x="136.626953" y="266.265625"/>
<use xlink:href="#glyph-1-5" x="142.188477" y="266.265625"/>
<use xlink:href="#glyph-1-16" x="144.966797" y="266.265625"/>
<use xlink:href="#glyph-1-5" x="150.806641" y="266.265625"/>
<use xlink:href="#glyph-1-13" x="153.584961" y="266.265625"/>
<use xlink:href="#glyph-1-6" x="155.806641" y="266.265625"/>
<use xlink:href="#glyph-1-17" x="158.02832" y="266.265625"/>
<use xlink:href="#glyph-1-1" x="160.806641" y="266.265625"/>
<use xlink:href="#glyph-1-4" x="166.368164" y="266.265625"/>
<use xlink:href="#glyph-1-15" x="171.368164" y="266.265625"/>
<use xlink:href="#glyph-1-2" x="176.929688" y="266.265625"/>
<use xlink:href="#glyph-1-7" x="182.491211" y="266.265625"/>
<use xlink:href="#glyph-1-5" x="188.052734" y="266.265625"/>
<use xlink:href="#glyph-1-18" x="190.831055" y="266.265625"/>
<use xlink:href="#glyph-1-8" x="194.161133" y="266.265625"/>
<use xlink:href="#glyph-1-11" x="199.161133" y="266.265625"/>
<use xlink:href="#glyph-1-19" x="204.722656" y="266.265625"/>
<use xlink:href="#glyph-1-15" x="213.052734" y="266.265625"/>
<use xlink:href="#glyph-1-3" x="218.614258" y="266.265625"/>
<use xlink:href="#glyph-1-1" x="221.944336" y="266.265625"/>
<use xlink:href="#glyph-1-4" x="227.505859" y="266.265625"/>
<use xlink:href="#glyph-1-4" x="232.505859" y="266.265625"/>
<use xlink:href="#glyph-1-6" x="237.505859" y="266.265625"/>
<use xlink:href="#glyph-1-11" x="239.727539" y="266.265625"/>
<use xlink:href="#glyph-1-7" x="245.289062" y="266.265625"/>
<use xlink:href="#glyph-1-5" x="250.850586" y="266.265625"/>
<use xlink:href="#glyph-1-16" x="253.628906" y="266.265625"/>
<use xlink:href="#glyph-1-5" x="259.46875" y="266.265625"/>
<use xlink:href="#glyph-1-1" x="262.24707" y="266.265625"/>
<use xlink:href="#glyph-1-20" x="267.808594" y="266.265625"/>
<use xlink:href="#glyph-1-9" x="272.808594" y="266.265625"/>
<use xlink:href="#glyph-1-1" x="275.586914" y="266.265625"/>
<use xlink:href="#glyph-1-7" x="281.148438" y="266.265625"/>
<use xlink:href="#glyph-1-4" x="286.709961" y="266.265625"/>
<use xlink:href="#glyph-1-6" x="291.709961" y="266.265625"/>
<use xlink:href="#glyph-1-11" x="293.931641" y="266.265625"/>
<use xlink:href="#glyph-1-7" x="299.493164" y="266.265625"/>
<use xlink:href="#glyph-1-21" x="305.054688" y="266.265625"/>
</g>
<g fill="rgb(0%, 0%, 0%)" fill-opacity="1">
<use xlink:href="#glyph-1-22" x="91.597656" y="280.664062"/>
<use xlink:href="#glyph-1-6" x="97.15918" y="280.664062"/>
<use xlink:href="#glyph-1-17" x="99.380859" y="280.664062"/>
<use xlink:href="#glyph-1-1" x="102.15918" y="280.664062"/>
<use xlink:href="#glyph-1-4" x="107.720703" y="280.664062"/>
<use xlink:href="#glyph-1-15" x="112.720703" y="280.664062"/>
<use xlink:href="#glyph-1-2" x="118.282227" y="280.664062"/>
<use xlink:href="#glyph-1-7" x="123.84375" y="280.664062"/>
<use xlink:href="#glyph-1-5" x="129.405273" y="280.664062"/>
<use xlink:href="#glyph-1-11" x="132.183594" y="280.664062"/>
<use xlink:href="#glyph-1-7" x="137.745117" y="280.664062"/>
<use xlink:href="#glyph-1-13" x="143.306641" y="280.664062"/>
<use xlink:href="#glyph-1-23" x="145.52832" y="280.664062"/>
<use xlink:href="#glyph-1-5" x="150.52832" y="280.664062"/>
<use xlink:href="#glyph-1-18" x="153.306641" y="280.664062"/>
<use xlink:href="#glyph-1-1" x="156.636719" y="280.664062"/>
<use xlink:href="#glyph-1-20" x="162.198242" y="280.664062"/>
<use xlink:href="#glyph-1-9" x="167.198242" y="280.664062"/>
<use xlink:href="#glyph-1-1" x="169.976562" y="280.664062"/>
<use xlink:href="#glyph-1-7" x="175.538086" y="280.664062"/>
<use xlink:href="#glyph-1-4" x="181.099609" y="280.664062"/>
<use xlink:href="#glyph-1-6" x="186.099609" y="280.664062"/>
<use xlink:href="#glyph-1-11" x="188.321289" y="280.664062"/>
<use xlink:href="#glyph-1-7" x="193.882812" y="280.664062"/>
<use xlink:href="#glyph-1-5" x="199.444336" y="280.664062"/>
<use xlink:href="#glyph-1-24" x="202.222656" y="280.664062"/>
<use xlink:href="#glyph-1-6" x="209.444336" y="280.664062"/>
<use xlink:href="#glyph-1-9" x="211.666016" y="280.664062"/>
<use xlink:href="#glyph-1-14" x="214.444336" y="280.664062"/>
<use xlink:href="#glyph-1-11" x="220.005859" y="280.664062"/>
<use xlink:href="#glyph-1-25" x="225.567383" y="280.664062"/>
<use xlink:href="#glyph-1-9" x="231.128906" y="280.664062"/>
<use xlink:href="#glyph-1-5" x="233.907227" y="280.664062"/>
<use xlink:href="#glyph-1-8" x="236.685547" y="280.664062"/>
<use xlink:href="#glyph-1-11" x="241.685547" y="280.664062"/>
<use xlink:href="#glyph-1-19" x="247.24707" y="280.664062"/>
<use xlink:href="#glyph-1-15" x="255.577148" y="280.664062"/>
<use xlink:href="#glyph-1-3" x="261.138672" y="280.664062"/>
<use xlink:href="#glyph-1-1" x="264.46875" y="280.664062"/>
<use xlink:href="#glyph-1-4" x="270.030273" y="280.664062"/>
<use xlink:href="#glyph-1-4" x="275.030273" y="280.664062"/>
<use xlink:href="#glyph-1-6" x="280.030273" y="280.664062"/>
<use xlink:href="#glyph-1-11" x="282.251953" y="280.664062"/>
<use xlink:href="#glyph-1-7" x="287.813477" y="280.664062"/>
<use xlink:href="#glyph-1-21" x="293.375" y="280.664062"/>
</g>
<g fill="rgb(0%, 0%, 0%)" fill-opacity="1">
<use xlink:href="#glyph-1-12" x="91.597656" y="295.066406"/>
<use xlink:href="#glyph-1-1" x="98.819336" y="295.066406"/>
<use xlink:href="#glyph-1-2" x="104.380859" y="295.066406"/>
<use xlink:href="#glyph-1-13" x="109.942383" y="295.066406"/>
<use xlink:href="#glyph-1-9" x="112.164062" y="295.066406"/>
<use xlink:href="#glyph-1-14" x="114.942383" y="295.066406"/>
<use xlink:href="#glyph-1-4" x="120.503906" y="295.066406"/>
<use xlink:href="#glyph-1-15" x="125.503906" y="295.066406"/>
<use xlink:href="#glyph-1-2" x="131.06543" y="295.066406"/>
<use xlink:href="#glyph-1-7" x="136.626953" y="295.066406"/>
<use xlink:href="#glyph-1-5" x="142.188477" y="295.066406"/>
<use xlink:href="#glyph-1-11" x="144.966797" y="295.066406"/>
<use xlink:href="#glyph-1-7" x="150.52832" y="295.066406"/>
<use xlink:href="#glyph-1-13" x="156.089844" y="295.066406"/>
<use xlink:href="#glyph-1-23" x="158.311523" y="295.066406"/>
<use xlink:href="#glyph-1-5" x="163.311523" y="295.066406"/>
<use xlink:href="#glyph-1-18" x="166.089844" y="295.066406"/>
<use xlink:href="#glyph-1-8" x="169.419922" y="295.066406"/>
<use xlink:href="#glyph-1-11" x="174.419922" y="295.066406"/>
<use xlink:href="#glyph-1-19" x="179.981445" y="295.066406"/>
<use xlink:href="#glyph-1-15" x="188.311523" y="295.066406"/>
<use xlink:href="#glyph-1-3" x="193.873047" y="295.066406"/>
<use xlink:href="#glyph-1-1" x="197.203125" y="295.066406"/>
<use xlink:href="#glyph-1-4" x="202.764648" y="295.066406"/>
<use xlink:href="#glyph-1-4" x="207.764648" y="295.066406"/>
<use xlink:href="#glyph-1-6" x="212.764648" y="295.066406"/>
<use xlink:href="#glyph-1-11" x="214.986328" y="295.066406"/>
<use xlink:href="#glyph-1-7" x="220.547852" y="295.066406"/>
<use xlink:href="#glyph-1-5" x="226.109375" y="295.066406"/>
<use xlink:href="#glyph-1-24" x="228.887695" y="295.066406"/>
<use xlink:href="#glyph-1-6" x="236.109375" y="295.066406"/>
<use xlink:href="#glyph-1-9" x="238.331055" y="295.066406"/>
<use xlink:href="#glyph-1-14" x="241.109375" y="295.066406"/>
<use xlink:href="#glyph-1-11" x="246.670898" y="295.066406"/>
<use xlink:href="#glyph-1-25" x="252.232422" y="295.066406"/>
<use xlink:href="#glyph-1-9" x="257.793945" y="295.066406"/>
<use xlink:href="#glyph-1-5" x="260.572266" y="295.066406"/>
<use xlink:href="#glyph-1-1" x="263.350586" y="295.066406"/>
<use xlink:href="#glyph-1-20" x="268.912109" y="295.066406"/>
<use xlink:href="#glyph-1-9" x="273.912109" y="295.066406"/>
<use xlink:href="#glyph-1-1" x="276.69043" y="295.066406"/>
<use xlink:href="#glyph-1-7" x="282.251953" y="295.066406"/>
<use xlink:href="#glyph-1-4" x="287.813477" y="295.066406"/>
<use xlink:href="#glyph-1-6" x="292.813477" y="295.066406"/>
<use xlink:href="#glyph-1-11" x="295.035156" y="295.066406"/>
<use xlink:href="#glyph-1-7" x="300.59668" y="295.066406"/>
<use xlink:href="#glyph-1-21" x="306.158203" y="295.066406"/>
</g>
<g fill="rgb(45.098039%, 45.098039%, 45.098039%)" fill-opacity="1">
<use xlink:href="#glyph-3-0" x="59.699219" y="315.234375"/>
<use xlink:href="#glyph-3-1" x="62.060791" y="315.234375"/>
<use xlink:href="#glyph-3-1" x="63.949219" y="315.234375"/>
<use xlink:href="#glyph-3-2" x="65.837646" y="315.234375"/>
<use xlink:href="#glyph-3-3" x="70.564941" y="315.234375"/>
<use xlink:href="#glyph-3-4" x="74.814941" y="315.234375"/>
<use xlink:href="#glyph-3-5" x="77.176514" y="315.234375"/>
<use xlink:href="#glyph-3-6" x="80.00708" y="315.234375"/>
<use xlink:href="#glyph-3-4" x="84.734375" y="315.234375"/>
<use xlink:href="#glyph-3-7" x="87.095947" y="315.234375"/>
<use xlink:href="#glyph-3-8" x="88.984375" y="315.234375"/>
<use xlink:href="#glyph-3-9" x="93.234375" y="315.234375"/>
<use xlink:href="#glyph-3-10" x="97.96167" y="315.234375"/>
<use xlink:href="#glyph-3-11" x="100.323242" y="315.234375"/>
<use xlink:href="#glyph-3-8" x="102.684814" y="315.234375"/>
<use xlink:href="#glyph-3-6" x="106.934814" y="315.234375"/>
<use xlink:href="#glyph-3-1" x="111.662109" y="315.234375"/>
<use xlink:href="#glyph-3-2" x="113.550537" y="315.234375"/>
<use xlink:href="#glyph-3-9" x="118.277832" y="315.234375"/>
<use xlink:href="#glyph-3-3" x="123.005127" y="315.234375"/>
<use xlink:href="#glyph-3-11" x="127.255127" y="315.234375"/>
<use xlink:href="#glyph-3-6" x="129.616699" y="315.234375"/>
<use xlink:href="#glyph-3-5" x="134.343994" y="315.234375"/>
<use xlink:href="#glyph-3-9" x="137.174561" y="315.234375"/>
<use xlink:href="#glyph-3-11" x="141.901855" y="315.234375"/>
<use xlink:href="#glyph-3-3" x="144.263428" y="315.234375"/>
<use xlink:href="#glyph-3-9" x="148.513428" y="315.234375"/>
<use xlink:href="#glyph-3-12" x="153.240723" y="315.234375"/>
<use xlink:href="#glyph-3-3" x="157.968018" y="315.234375"/>
<use xlink:href="#glyph-3-7" x="162.218018" y="315.234375"/>
<use xlink:href="#glyph-3-4" x="164.106445" y="315.234375"/>
<use xlink:href="#glyph-3-7" x="166.468018" y="315.234375"/>
<use xlink:href="#glyph-3-8" x="168.356445" y="315.234375"/>
<use xlink:href="#glyph-3-9" x="172.606445" y="315.234375"/>
<use xlink:href="#glyph-3-11" x="177.33374" y="315.234375"/>
<use xlink:href="#glyph-3-4" x="179.695312" y="315.234375"/>
<use xlink:href="#glyph-3-13" x="182.056885" y="315.234375"/>
<use xlink:href="#glyph-3-11" x="186.78418" y="315.234375"/>
<use xlink:href="#glyph-3-6" x="189.145752" y="315.234375"/>
<use xlink:href="#glyph-3-3" x="193.873047" y="315.234375"/>
<use xlink:href="#glyph-3-3" x="198.123047" y="315.234375"/>
<use xlink:href="#glyph-3-2" x="202.373047" y="315.234375"/>
<use xlink:href="#glyph-3-14" x="207.100342" y="315.234375"/>
<use xlink:href="#glyph-3-15" x="214.180908" y="315.234375"/>
<use xlink:href="#glyph-3-4" x="218.908203" y="315.234375"/>
<use xlink:href="#glyph-3-7" x="221.269775" y="315.234375"/>
<use xlink:href="#glyph-3-13" x="223.158203" y="315.234375"/>
<use xlink:href="#glyph-3-12" x="227.885498" y="315.234375"/>
<use xlink:href="#glyph-3-3" x="232.612793" y="315.234375"/>
<use xlink:href="#glyph-3-11" x="236.862793" y="315.234375"/>
<use xlink:href="#glyph-3-6" x="239.224365" y="315.234375"/>
<use xlink:href="#glyph-3-12" x="243.95166" y="315.234375"/>
<use xlink:href="#glyph-3-16" x="248.678955" y="315.234375"/>
<use xlink:href="#glyph-3-11" x="253.40625" y="315.234375"/>
<use xlink:href="#glyph-3-3" x="255.767822" y="315.234375"/>
<use xlink:href="#glyph-3-17" x="260.017822" y="315.234375"/>
<use xlink:href="#glyph-3-13" x="264.745117" y="315.234375"/>
<use xlink:href="#glyph-3-2" x="269.472412" y="315.234375"/>
<use xlink:href="#glyph-3-1" x="274.199707" y="315.234375"/>
<use xlink:href="#glyph-3-16" x="276.088135" y="315.234375"/>
<use xlink:href="#glyph-3-11" x="280.81543" y="315.234375"/>
<use xlink:href="#glyph-3-12" x="283.177002" y="315.234375"/>
<use xlink:href="#glyph-3-13" x="287.904297" y="315.234375"/>
<use xlink:href="#glyph-3-4" x="292.631592" y="315.234375"/>
<use xlink:href="#glyph-3-11" x="294.993164" y="315.234375"/>
<use xlink:href="#glyph-3-18" x="297.354736" y="315.234375"/>
<use xlink:href="#glyph-3-9" x="302.082031" y="315.234375"/>
<use xlink:href="#glyph-3-11" x="306.809326" y="315.234375"/>
<use xlink:href="#glyph-3-5" x="309.170898" y="315.234375"/>
<use xlink:href="#glyph-3-9" x="312.001465" y="315.234375"/>
<use xlink:href="#glyph-3-6" x="316.72876" y="315.234375"/>
<use xlink:href="#glyph-3-16" x="321.456055" y="315.234375"/>
<use xlink:href="#glyph-3-11" x="326.18335" y="315.234375"/>
<use xlink:href="#glyph-3-6" x="328.544922" y="315.234375"/>
<use xlink:href="#glyph-3-3" x="333.272217" y="315.234375"/>
<use xlink:href="#glyph-3-11" x="337.522217" y="315.234375"/>
<use xlink:href="#glyph-3-6" x="339.883789" y="315.234375"/>
<use xlink:href="#glyph-3-11" x="344.611084" y="315.234375"/>
<use xlink:href="#glyph-3-19" x="346.972656" y="315.234375"/>
<use xlink:href="#glyph-3-13" x="349.334229" y="315.234375"/>
<use xlink:href="#glyph-3-5" x="354.061523" y="315.234375"/>
<use xlink:href="#glyph-3-9" x="356.89209" y="315.234375"/>
<use xlink:href="#glyph-3-20" x="361.619385" y="315.234375"/>
<use xlink:href="#glyph-3-6" x="365.869385" y="315.234375"/>
<use xlink:href="#glyph-3-3" x="370.59668" y="315.234375"/>
<use xlink:href="#glyph-3-4" x="374.84668" y="315.234375"/>
<use xlink:href="#glyph-3-21" x="377.208252" y="315.234375"/>
</g>
</svg>
